<?xml version="1.0" standalone="no"?>
<!DOCTYPE svg PUBLIC "-//W3C//DTD SVG 20010904//EN"
 "http://www.w3.org/TR/2001/REC-SVG-20010904/DTD/svg10.dtd">
<svg version="1.0" xmlns="http://www.w3.org/2000/svg"
 width="1280.000000pt" height="720.000000pt" viewBox="0 0 1280.000000 720.000000"
 preserveAspectRatio="xMidYMid meet">

<g transform="translate(0.000000,720.000000) scale(0.100000,-0.100000)"
fill="#000000" stroke="none">
<path d="M0 3600 l0 -3600 1689 0 1689 0 6 27 c3 16 8 48 11 73 22 192 38 270
65 327 l28 62 41 -3 c23 -2 45 2 50 8 4 6 20 47 35 91 21 66 26 98 26 180 l-1
100 -52 -160 -53 -160 -67 -3 -67 -3 0 341 0 340 75 0 75 0 1 -167 1 -168 54
168 55 167 64 0 65 0 0 -340 0 -340 -56 0 c-54 0 -55 0 -52 -27 3 -28 4 -28
78 -28 l75 0 3 102 c2 90 5 104 22 113 19 10 20 21 19 148 -1 75 -4 125 -6
110 -2 -16 -11 -28 -19 -28 -21 0 -18 69 6 105 16 23 20 47 20 108 l0 77 53 0
c29 0 59 6 66 13 11 10 13 10 7 0 -5 -10 4 -13 33 -13 36 0 41 -3 41 -22 -1
-37 43 -288 50 -288 4 0 17 70 30 155 l23 155 93 0 c65 0 93 -4 95 -12 2 -7 3
-160 1 -340 l-3 -328 -49 0 c-47 0 -50 -2 -50 -25 0 -14 3 -25 8 -26 106 -10
136 -9 143 3 5 7 9 133 9 280 0 258 1 267 20 273 15 5 20 15 20 44 0 31 8 44
48 84 l48 47 95 0 95 0 47 -48 47 -48 0 -245 0 -245 -48 -47 -48 -47 -94 0
c-88 0 -96 2 -124 27 -17 15 -6 1 26 -30 l56 -57 89 0 88 0 58 56 57 56 0 241
0 241 -37 38 -37 38 57 0 57 0 0 35 0 35 143 0 143 0 42 -43 42 -43 0 -92 0
-92 -36 -33 -37 -34 30 -21 29 -21 37 34 c37 34 37 34 37 114 0 45 3 81 6 81
36 0 245 -143 332 -226 56 -54 55 -60 0 -22 -16 11 -28 15 -28 9 0 -6 5 -11
11 -11 6 0 8 -7 5 -16 -4 -9 -1 -22 4 -30 6 -7 12 -35 13 -63 l2 -51 78 0 77
0 1 190 c1 105 3 195 4 200 1 6 3 35 4 65 0 30 4 54 9 53 16 -3 62 22 60 34
-2 6 6 14 17 16 24 5 65 41 65 58 0 6 -38 40 -85 74 -187 135 -473 230 -772
255 -72 6 -83 10 -83 26 0 14 -7 19 -25 19 l-25 0 0 -110 0 -110 -51 0 c-46 0
-50 -2 -47 -22 2 -13 10 -24 18 -25 76 -9 90 -15 90 -33 0 -24 -46 -60 -76
-60 -13 0 -24 -4 -24 -10 0 -5 -7 -7 -16 -3 -9 3 -19 2 -23 -3 -9 -13 -87 -32
-164 -40 -50 -5 -70 -3 -81 7 -8 8 -22 20 -31 27 -21 18 -20 73 3 79 24 6 45
57 40 94 -8 49 19 63 128 67 92 4 94 5 94 28 l0 24 -153 0 -153 0 4 60 c2 33
1 60 -2 60 -4 0 -18 -7 -31 -16 -35 -23 -31 -2 5 24 l30 22 -1 228 c-1 125 -1
244 0 265 l1 37 73 0 72 0 0 -272 0 -273 48 -3 49 -3 -3 193 c-2 106 -2 230
-1 276 l2 82 73 0 72 0 0 -272 0 -273 25 0 c25 0 25 0 28 110 l3 109 48 46
c237 219 236 219 328 288 73 56 81 65 77 89 -3 15 -2 24 2 20 4 -4 17 -1 28 6
12 8 34 22 51 33 16 10 26 13 22 6 -14 -21 6 -13 62 24 107 72 176 104 225
104 42 0 46 2 46 24 0 19 11 29 58 51 161 76 403 154 524 168 55 7 96 15 92
20 -4 4 8 7 27 8 32 0 32 1 10 10 -28 11 -170 14 -227 4 -40 -7 -256 -77 -309
-100 -16 -8 -61 -28 -99 -44 -38 -17 -70 -31 -72 -31 -8 0 -4 629 4 634 4 2
13 -8 20 -24 9 -20 22 -29 45 -33 18 -3 35 -2 39 2 11 11 16 81 5 81 -6 0 -8
2 -5 5 6 6 -60 75 -72 75 -13 0 -31 -27 -33 -49 -1 -13 -6 -20 -14 -17 -7 3
-13 -1 -13 -9 0 -8 -7 -15 -15 -15 -13 0 -15 -44 -17 -332 -1 -183 -2 -342 -2
-353 -1 -18 -9 -20 -74 -23 -44 -2 -70 -7 -67 -13 4 -5 11 -7 16 -4 5 4 9 2 9
-3 0 -5 -33 -31 -72 -58 -40 -26 -77 -54 -81 -61 -4 -7 -15 -13 -22 -13 -8 0
-15 -4 -15 -9 0 -5 -9 -13 -20 -16 -11 -3 -27 -14 -36 -22 -14 -14 -25 -18
-68 -22 -4 -1 -5 -8 -2 -17 4 -9 2 -13 -5 -8 -6 3 -24 -3 -40 -15 -16 -12 -29
-18 -29 -14 0 4 17 19 37 33 20 14 49 37 65 52 15 14 43 32 62 39 20 7 36 16
36 19 0 11 56 65 82 79 17 8 25 20 23 31 -2 10 7 52 21 94 20 63 24 96 23 184
l-1 107 -60 -183 -61 -183 -66 3 -66 3 -3 148 -3 147 -24 0 -25 0 0 200 0 200
-28 0 c-24 0 -28 -4 -29 -27 0 -16 -1 -172 -2 -348 l-1 -320 -75 -1 -75 -1 0
261 c0 144 -3 271 -6 283 -3 11 -14 23 -24 26 -17 4 -60 61 -60 79 0 11 36 19
54 12 9 -3 16 -16 17 -28 1 -19 2 -19 9 4 4 14 8 42 9 63 1 23 7 40 16 43 8 4
15 14 15 24 0 10 11 31 24 47 39 46 14 83 -66 98 -42 8 -75 39 -80 75 l-3 25
300 0 c327 1 345 -1 345 -21 0 -8 6 -14 13 -14 8 0 7 -3 -3 -10 -10 -6 0 -10
35 -12 l50 -3 -3 -45 c-3 -34 -11 -53 -35 -77 l-31 -33 -110 0 -110 0 29 -30
c28 -30 30 -30 136 -30 l107 0 36 42 c28 32 36 51 37 82 0 23 3 35 6 29 2 -7
10 -13 16 -13 6 0 19 -8 29 -17 10 -9 31 -18 46 -19 15 -1 36 -5 48 -9 13 -4
25 -1 33 9 8 9 19 16 27 16 18 0 26 33 15 63 -6 14 -7 42 -4 61 4 24 2 36 -6
36 -6 0 -11 -4 -11 -9 0 -5 -12 -17 -27 -26 l-27 -18 -37 43 -37 42 -54 -13
c-29 -7 -59 -17 -65 -22 -9 -7 -15 -2 -22 14 -4 13 -12 22 -17 19 -4 -3 -10
13 -12 35 -3 41 -22 95 -33 95 -3 0 -4 11 -1 25 2 15 0 25 -7 25 -6 0 -11 6
-11 14 0 8 -6 16 -12 19 -20 7 5 42 30 43 41 2 47 18 47 116 -1 51 -5 126 -9
166 -6 52 -5 72 3 72 6 0 20 8 31 18 11 9 28 24 39 33 17 15 18 21 5 69 -10
39 -11 57 -3 67 16 19 24 16 37 -12 16 -35 15 -95 0 -95 -9 0 -10 -3 -2 -8 6
-4 14 -23 18 -43 4 -22 22 -53 47 -80 22 -24 45 -52 50 -61 5 -10 16 -18 24
-18 9 0 15 -10 15 -26 0 -16 5 -24 13 -21 6 2 11 15 9 29 -2 14 4 43 12 63 19
44 14 151 -9 216 -8 23 -12 52 -9 65 9 34 -14 94 -51 135 -18 20 -36 52 -40
70 -8 35 24 239 37 239 4 0 8 18 8 41 0 36 2 40 23 37 22 -3 27 -25 13 -58
-11 -26 17 -51 62 -57 37 -5 42 -3 42 14 0 22 -40 73 -57 73 -6 0 -18 11 -27
25 -9 14 -25 25 -36 25 -24 0 -25 8 -3 32 17 19 18 28 12 146 -3 47 -5 53 -28
58 -108 21 -128 40 -115 103 4 20 7 38 7 41 -1 3 -6 41 -12 84 -11 81 -26 105
-64 106 -51 1 -127 95 -119 148 4 27 1 32 -16 32 -12 0 -32 15 -47 34 -14 19
-51 46 -86 62 -42 20 -62 36 -66 52 -10 41 18 46 49 9 36 -41 43 -30 52 75 8
90 18 118 45 118 11 0 22 7 25 15 5 14 9 14 33 2 24 -12 35 -13 76 0 42 12 52
21 49 44 -23 173 -47 256 -77 266 -24 7 -38 -16 -37 -63 1 -27 -5 -71 -13 -98
-8 -27 -15 -67 -15 -88 0 -31 -3 -38 -20 -38 -11 0 -20 4 -20 10 0 13 -47 36
-91 44 -51 9 -70 35 -78 105 -4 33 -10 64 -14 67 -4 4 -19 -5 -33 -19 -15 -15
-31 -27 -36 -27 -19 0 -55 143 -65 258 l-5 53 38 -35 c34 -31 41 -34 53 -21
13 12 13 24 2 78 -7 34 -12 67 -10 72 4 24 -3 34 -32 44 -28 10 -31 14 -26 41
4 16 2 42 -3 56 -7 18 -7 39 2 67 6 23 10 47 8 52 -10 30 -17 201 -9 217 9 16
5 18 -44 18 -53 0 -54 0 -65 -37 -7 -21 -15 -54 -20 -73 -6 -27 -17 -39 -45
-53 -20 -9 -37 -21 -37 -25 0 -10 38 -42 50 -42 10 0 30 -32 30 -49 0 -19 -16
-12 -61 27 -47 40 -95 66 -109 57 -4 -3 -11 -22 -14 -42 -12 -62 -28 -90 -63
-107 -19 -9 -40 -16 -47 -16 -20 0 -63 -54 -71 -88 -9 -44 -106 -137 -155
-150 -32 -8 -40 -7 -40 4 0 13 -30 34 -49 34 -8 0 -11 -137 -11 -445 l0 -445
40 0 40 0 0 -215 0 -215 -115 0 -115 0 0 105 0 105 -170 0 -170 0 0 -105 0
-105 -110 0 -110 0 0 215 0 215 38 0 38 0 53 373 52 372 46 47 c39 40 44 49
33 63 -7 8 -9 15 -5 15 4 0 -4 9 -18 20 -17 13 -40 20 -72 20 -69 0 -85 -12
-85 -65 0 -25 -4 -53 -10 -63 -5 -9 -23 -50 -40 -90 -16 -41 -38 -86 -49 -101
-11 -15 -21 -42 -24 -61 -2 -19 -5 51 -5 156 -2 165 -4 193 -18 198 -46 17
-44 33 -44 -439 l0 -445 40 0 40 0 0 -215 0 -215 -116 0 -116 0 3 103 4 102
-172 3 -173 2 0 -105 0 -105 -110 0 -110 0 0 215 0 215 40 0 c22 0 40 4 40 9
0 5 9 72 19 148 18 130 34 286 24 235 l-5 -23 -24 24 c-23 23 -29 42 -26 80 2
17 26 24 35 10 2 -5 2 -3 1 4 -6 25 -13 87 -8 68 9 -30 24 -42 24 -20 1 19 1
19 14 2 13 -17 15 -15 19 20 26 180 32 206 49 217 10 6 18 21 18 33 0 13 4 23
10 23 5 0 6 -8 3 -17 -4 -10 14 2 40 26 26 24 47 45 47 47 0 1 -9 0 -20 -3
-25 -7 -26 12 -4 55 17 34 24 38 40 22 8 -8 15 -6 24 5 7 8 10 15 6 15 -10 0
25 64 40 73 8 4 14 13 14 20 0 7 11 24 25 39 14 15 25 31 25 36 0 5 7 15 15
22 8 7 15 22 15 34 0 14 13 28 40 44 39 22 40 24 40 77 0 29 -5 57 -10 60 -21
13 11 33 63 40 29 4 59 11 67 16 8 5 -826 9 -1892 9 l-1908 0 0 -3600z m2743
3115 c-7 -19 -27 -19 -42 -1 -10 11 -10 20 0 37 l12 23 18 -23 c10 -12 15 -29
12 -36z m-455 -162 l-3 -108 -83 -3 -82 -3 0 -432 c0 -238 0 -442 0 -454 0
-23 -2 -23 -115 -23 l-115 0 0 455 0 455 -79 0 -80 0 -3 106 c-2 58 -1 108 1
110 2 2 130 4 283 4 l279 0 -3 -107z m629 25 l83 -83 0 -400 0 -400 -82 -82
-83 -83 -150 0 -150 0 -82 82 -83 83 0 400 0 400 82 82 83 83 150 0 150 0 82
-82z m447 50 c-3 -4 3 -8 13 -8 15 -1 14 -4 -7 -21 l-24 -21 -10 21 c-10 23
-28 29 -25 9 1 -7 1 -26 -1 -43 -1 -26 -3 -27 -10 -10 -4 11 -4 24 0 29 5 5 6
15 3 22 -3 8 4 17 18 22 29 11 50 11 43 0z m-263 -235 c-12 -20 -14 -14 -5 12
4 9 9 14 11 11 3 -2 0 -13 -6 -23z m129 0 c0 -5 -5 -15 -10 -23 -8 -12 -10
-11 -10 8 0 12 5 22 10 22 6 0 10 -3 10 -7z m-113 -35 c-3 -8 -6 -5 -6 6 -1
11 2 17 5 13 3 -3 4 -12 1 -19z m129 -17 c-1 -18 -5 -27 -13 -24 -16 6 -16 9
-3 34 14 26 17 24 16 -10z m1551 -587 c-3 -3 -12 -4 -19 -1 -8 3 -5 6 6 6 11
1 17 -2 13 -5z m136 -34 c5 -19 13 -38 19 -41 7 -4 6 -9 -1 -13 -17 -11 -13
-26 7 -26 23 0 42 -19 42 -43 0 -14 4 -17 18 -12 42 18 52 16 76 -11 26 -30
33 -54 16 -54 -5 0 -10 -16 -10 -36 0 -27 5 -37 19 -41 24 -6 45 -55 37 -87
-6 -25 -58 -56 -94 -56 -11 0 -22 -6 -25 -12 -4 -10 -7 -10 -18 0 -19 17 -34
15 -19 -3 11 -13 10 -14 -4 -9 -18 7 -19 4 -10 -20 5 -14 30 -16 170 -16 l164
0 0 -461 0 -461 38 3 c20 2 40 8 45 14 4 6 10 5 17 -5 8 -12 10 -12 10 -1 0
12 3 11 18 -1 9 -9 25 -14 35 -13 10 2 14 -1 11 -7 -4 -6 0 -16 9 -23 10 -7
21 -40 28 -86 6 -42 19 -84 30 -98 23 -28 24 -50 5 -57 -19 -7 -29 -34 -18
-48 5 -6 12 -41 15 -77 6 -71 26 -127 37 -108 8 12 50 3 50 -11 0 -4 -11 -11
-25 -14 -43 -11 -31 -36 17 -36 54 0 45 -7 -23 -19 -54 -9 -54 -9 32 -10 71
-1 88 -4 93 -17 11 -30 -3 -54 -32 -54 -15 0 -1154 0 -2532 0 -2224 0 -2506 2
-2520 15 -11 12 -12 20 -4 33 11 16 138 17 2185 22 1196 3 2169 6 2163 8 -11
2 -40 159 -31 169 7 6 23 0 48 -19 9 -6 24 -8 33 -5 15 6 16 17 10 82 l-7 75
62 0 61 0 0 35 0 35 -175 0 -175 0 0 -105 0 -105 -110 0 -110 0 0 215 0 215
40 0 c22 0 40 2 40 5 0 3 9 69 21 147 11 79 29 208 40 288 11 80 24 177 29
215 22 157 22 189 1 212 -11 11 -17 24 -13 29 4 4 1 4 -5 0 -7 -4 -13 -13 -13
-20 0 -7 -9 -21 -20 -31 -18 -16 -23 -17 -35 -4 -8 8 -16 30 -17 49 -3 32 0
35 25 38 16 2 36 -3 45 -10 10 -8 13 -8 9 -1 -4 6 -3 14 3 18 6 4 10 87 10
225 0 120 3 225 6 234 4 10 18 16 38 16 17 0 42 7 56 14 37 21 53 15 63 -24z
m-179 14 c9 -3 16 -10 16 -15 0 -6 -8 -6 -19 0 -10 6 -22 7 -26 3 -5 -4 -5 -1
-1 6 8 14 9 14 30 6z m-3163 -498 c2 -2 3 -52 1 -110 l-3 -106 -130 0 -129 0
0 -460 0 -461 -117 3 -118 3 -3 568 -2 567 248 0 c137 0 251 -2 253 -4z m632
-77 l87 -81 0 -407 0 -407 -84 -82 -84 -82 -143 0 -144 1 -87 82 -88 82 0 403
0 402 88 85 87 84 140 1 141 0 87 -81z m790 6 l77 -74 0 -153 0 -153 -55 -48
c-30 -27 -55 -52 -55 -57 0 -4 29 -32 65 -60 l65 -52 0 -153 0 -153 -87 -81
-87 -81 -228 0 -228 0 0 570 0 570 228 0 227 -1 78 -74z m801 -467 c48 -299
90 -555 93 -570 l6 -28 -126 0 -125 0 -5 33 c-4 17 -9 65 -13 105 l-7 72 -92
0 -93 0 -6 -87 c-11 -134 1 -123 -136 -123 -65 0 -121 3 -123 8 -2 4 31 255
74 557 43 303 78 556 79 563 0 9 46 12 193 12 l193 0 88 -542z m689 461 l87
-82 0 -216 0 -216 -82 -82 -83 -83 -102 0 -103 0 0 -190 0 -190 -120 0 -120 0
0 88 c-1 76 -2 85 -14 69 -21 -27 -26 -8 -22 72 4 73 21 96 21 28 0 -20 3 -37
8 -37 4 0 7 207 7 460 l0 460 218 0 218 0 87 -81z m-135 -771 c-4 -28 -42 -37
-52 -13 -9 24 1 35 30 35 21 0 25 -4 22 -22z m32 -162 c0 -7 -9 -16 -20 -19
-15 -4 -20 0 -20 14 0 12 7 19 20 19 11 0 20 -6 20 -14z m-3472 -1273 l-3
-368 -72 -3 c-80 -3 -74 -8 -78 68 -1 19 -3 146 -3 283 -2 211 -4 247 -17 247
-8 0 -17 -10 -19 -22 -5 -24 -56 -544 -56 -565 0 -9 -23 -13 -80 -13 l-80 0 0
28 c0 15 16 158 34 319 l34 292 53 50 54 50 118 1 117 0 -2 -367z m440 300
l-3 -68 -87 -3 -88 -3 0 -69 0 -70 75 0 76 0 -3 -67 -3 -68 -72 -3 -73 -3 0
-89 0 -90 85 0 85 0 0 -67 0 -68 -160 0 -160 0 0 368 0 367 165 0 166 0 -3
-67z m402 -3 l0 -70 -85 0 -85 0 -2 -277 c-1 -153 -1 -288 0 -300 1 -22 -3
-23 -79 -23 l-79 0 0 370 0 370 165 0 165 0 0 -70z m400 0 l0 -70 -90 0 -90 0
0 -70 0 -70 75 0 75 0 0 -70 0 -70 -75 0 -75 0 0 -90 0 -90 91 0 91 0 -6 -67
c-3 -38 -6 -68 -6 -68 0 0 -72 0 -160 0 l-160 0 0 368 0 367 165 0 165 0 0
-70z m230 -80 l0 -150 50 0 50 0 0 150 0 150 80 0 81 0 -1 -349 c-1 -192 -4
-359 -7 -370 -5 -19 -13 -21 -79 -21 l-74 0 0 150 0 150 -50 0 -50 0 0 -150 0
-150 -79 0 -80 0 -1 370 -1 370 81 0 80 0 0 -150z m783 -150 l-6 -300 31 0 32
0 0 -140 0 -140 -70 0 c-49 0 -70 4 -71 13 -1 6 -2 39 -3 72 l-1 60 -115 -2
c-70 -2 -115 -6 -116 -13 -1 -5 -2 -37 -3 -70 l-1 -60 -70 0 -70 0 0 139 0
140 27 3 28 3 33 245 33 245 52 52 52 52 122 1 122 0 -6 -300z m465 -27 c29
-181 55 -347 58 -370 l7 -43 -77 0 c-85 0 -81 -4 -91 83 l-7 58 -61 -3 c-58
-3 -62 -5 -65 -28 -1 -14 -5 -44 -8 -67 l-5 -43 -76 0 -76 0 7 73 c4 39 21
169 37 287 17 118 35 252 41 298 l11 82 126 0 127 0 52 -327z m459 275 l53
-52 0 -140 0 -140 -52 -53 -52 -53 -68 0 -68 0 0 -125 0 -125 -73 0 -74 0 -6
107 c-4 58 -7 225 -7 370 l0 263 147 0 147 0 53 -52z m291 -95 l-3 -148 53 -3
52 -3 0 150 0 151 81 0 c79 0 81 -1 75 -22 -3 -13 -6 -179 -6 -370 l0 -348
-75 0 -75 0 0 150 0 150 -55 0 -55 0 0 -150 0 -150 -75 0 -75 0 0 370 0 370
80 0 80 0 -2 -147z m522 6 l0 -140 67 4 68 4 52 -51 53 -51 0 -132 0 -131 -52
-47 -53 -47 -147 -2 -148 -2 0 368 0 368 80 0 80 0 0 -141z m1060 -563 c0 -2
-9 -6 -20 -9 -11 -3 -20 -1 -20 4 0 5 9 9 20 9 11 0 20 -2 20 -4z m-2650 -106
c0 -5 -7 -10 -15 -10 -8 0 -15 5 -15 10 0 6 7 10 15 10 8 0 15 -4 15 -10z
m2384 -35 c-10 -8 -23 -14 -29 -14 -5 0 -1 6 9 14 11 8 24 15 30 15 5 0 1 -7
-10 -15z m-54 -35 c-8 -5 -19 -10 -25 -10 -5 0 -3 5 5 10 8 5 20 10 25 10 6 0
3 -5 -5 -10z m-299 -154 c-7 -8 -9 -21 -5 -27 4 -8 3 -9 -5 -5 -17 11 -68 -31
-193 -157 -59 -60 -108 -103 -108 -97 0 12 52 72 104 119 15 14 49 46 75 70
25 24 57 51 71 60 14 8 34 25 44 38 11 13 22 21 24 18 3 -2 -1 -11 -7 -19z
m-1273 -89 l42 -41 0 -90 c0 -90 0 -90 -36 -127 l-36 -37 41 -28 41 -29 0 -95
0 -94 -47 -48 -47 -48 -143 0 -143 0 0 340 0 339 123 3 c67 2 131 1 142 -1 11
-2 39 -22 63 -44z m1292 38 c-7 -9 -15 -13 -19 -10 -3 3 1 10 9 15 21 14 24
12 10 -5z m-3560 -335 l0 -340 -70 0 -70 0 0 275 0 275 -50 0 -50 0 0 -275 0
-275 -70 0 -70 0 0 340 0 340 190 0 190 0 0 -340z m418 291 l52 -48 0 -130 0
-131 -53 -45 c-49 -42 -59 -46 -113 -49 l-59 -3 -3 -112 -3 -113 -69 0 -70 0
0 340 0 340 133 0 132 -1 53 -48z m454 2 l48 -47 0 -247 0 -247 -54 -46 -54
-46 -89 0 -89 0 -47 48 -47 47 -2 243 -3 242 50 50 49 50 95 0 95 0 48 -47z
m538 -228 c0 -268 0 -275 20 -275 18 0 20 -7 20 -57 0 -31 2 -54 5 -52 2 3 23
138 45 300 22 162 43 309 46 327 l6 32 117 0 117 0 48 -302 c26 -167 51 -320
56 -340 l8 -38 -77 0 -77 0 -10 63 -9 62 -52 3 -51 3 -7 -66 -7 -65 -79 0 -79
0 0 -65 0 -65 -65 0 -65 0 0 65 0 65 -105 0 -105 0 0 -65 0 -65 -65 0 -65 0 0
129 c0 126 1 130 22 133 21 3 24 14 54 227 l32 224 48 48 48 49 113 0 113 0 0
-275z m1310 210 l0 -65 -80 0 -80 0 0 -60 0 -60 70 0 71 0 -3 -67 -3 -68 -67
-3 -68 -3 0 -80 0 -81 80 4 80 3 0 -67 0 -68 -153 0 -154 0 3 168 c2 92 4 245
4 340 l0 172 150 0 150 0 0 -65z m-45 -684 c-26 -24 -346 -233 -351 -229 -7 7
14 23 180 135 83 56 158 102 166 102 8 1 10 -2 5 -8z m79 -53 c-58 -94 -184
-264 -184 -247 0 22 40 82 88 133 23 25 42 50 42 57 0 7 12 26 27 41 28 30 39
36 27 16z m-1953 -52 c1 -11 1 -24 0 -28 0 -5 26 -8 59 -8 60 0 60 0 60 29 0
33 13 39 68 33 29 -4 32 -7 32 -40 0 -27 -8 -44 -32 -69 -32 -33 -33 -33 -127
-33 -93 0 -96 1 -128 32 -26 25 -33 40 -33 69 0 31 4 38 23 41 46 7 77 -3 78
-26z m1509 -136 c0 -5 -5 -10 -11 -10 -5 0 -7 5 -4 10 3 6 8 10 11 10 2 0 4
-4 4 -10z m-2684 -76 l54 -46 0 -84 0 -84 -70 0 -69 0 -3 63 -3 62 -47 3 -48
3 0 -210 0 -211 51 0 50 0 -2 78 -2 77 71 3 72 3 0 -98 0 -97 -47 -48 -47 -48
-95 0 -95 0 -48 47 -48 47 0 245 0 245 47 48 47 48 90 0 89 0 53 -46z m296
-91 l3 -138 49 138 50 137 79 0 c59 0 78 -3 74 -12 -3 -7 -33 -77 -67 -155
l-62 -142 71 -178 c39 -98 70 -176 71 -173 0 3 20 148 45 324 25 175 45 323
45 327 0 5 53 9 118 9 l118 0 23 -142 c13 -79 38 -232 56 -340 l32 -198 -79 0
-78 0 0 29 c0 16 -3 43 -6 60 -6 30 -8 31 -59 31 l-53 0 -7 -60 -7 -60 -153 0
-154 0 -53 137 -53 137 -3 -137 -3 -138 -72 3 c-40 2 -71 6 -69 11 1 4 2 156
2 337 l0 330 70 0 69 0 3 -137z m889 -35 l1 -173 56 173 56 172 63 0 63 0 0
-340 0 -340 -70 0 -70 0 -2 168 -3 167 -54 -167 -55 -168 -63 0 -63 0 0 340 0
340 70 0 70 0 1 -172z m656 120 l53 -52 0 -127 0 -126 -56 -52 c-55 -49 -58
-51 -115 -51 l-59 0 0 -110 0 -110 -70 0 -70 0 0 340 0 340 132 0 132 0 53
-52z"/>
<path d="M2610 6095 l0 -345 75 0 75 0 0 345 0 345 -75 0 -75 0 0 -345z"/>
<path d="M5026 4983 c-4 -21 -15 -114 -26 -208 -11 -93 -27 -224 -35 -290 -22
-179 -26 -165 50 -165 l65 0 0 61 c0 38 -4 58 -10 54 -6 -3 -13 1 -16 9 -3 9
-9 14 -14 11 -4 -2 -6 6 -4 18 1 12 8 75 15 140 6 66 14 114 18 109 3 -6 7 59
9 144 l3 154 -25 0 c-20 0 -25 -6 -30 -37z"/>
<path d="M5400 4099 l0 -209 -101 0 -100 0 3 -32 c3 -31 5 -33 48 -36 25 -2
82 -1 128 3 l82 7 -2 231 -3 231 -27 7 -28 7 0 -209z"/>
<path d="M5365 3729 c-23 -5 -16 -7 28 -8 31 0 57 1 57 3 0 8 -56 11 -85 5z"/>
<path d="M1920 4670 l0 -350 79 0 80 0 0 350 1 350 -80 0 -80 0 0 -350z"/>
<path d="M2720 4900 l0 -120 75 0 75 0 0 120 0 120 -75 0 -75 0 0 -120z"/>
<path d="M2720 4440 l0 -120 75 0 75 0 0 120 0 120 -75 0 -75 0 0 -120z"/>
<path d="M3535 5008 c-5 -15 -55 -429 -55 -458 0 -18 7 -20 64 -20 l65 0 -5
33 c-7 52 -44 416 -44 438 0 21 -18 26 -25 7z"/>
<path d="M4220 4860 l0 -160 65 0 65 0 0 160 0 160 -65 0 -65 0 0 -160z"/>
<path d="M2971 2993 c-12 -104 -25 -207 -28 -230 l-6 -43 47 0 46 0 0 230 c0
215 -1 230 -18 230 -16 0 -21 -22 -41 -187z"/>
<path d="M3466 3148 c-3 -18 -10 -73 -16 -123 -6 -49 -13 -107 -16 -127 l-6
-38 47 0 47 0 -5 33 c-3 17 -11 89 -18 160 -12 126 -23 157 -33 95z"/>
<path d="M3920 3074 l0 -105 43 3 42 3 3 103 3 102 -45 0 -46 0 0 -106z"/>
<path d="M4920 2810 l0 -90 45 0 45 0 0 90 0 90 -45 0 -45 0 0 -90z"/>
<path d="M3900 2040 l0 -70 50 0 50 0 0 70 0 70 -50 0 -50 0 0 -70z"/>
<path d="M3907 1834 c-4 -4 -7 -38 -7 -76 l0 -68 50 0 51 0 -3 73 -3 72 -40 3
c-23 2 -44 0 -48 -4z"/>
<path d="M2060 2015 l0 -95 40 0 40 0 0 95 0 95 -40 0 -40 0 0 -95z"/>
<path d="M2500 1899 l0 -210 48 3 47 3 3 208 2 207 -50 0 -50 0 0 -211z"/>
<path d="M3050 2103 c0 -5 -12 -96 -25 -203 -14 -107 -25 -198 -25 -202 0 -5
18 -8 40 -8 l40 0 0 210 c0 180 -2 210 -15 210 -8 0 -15 -3 -15 -7z"/>
<path d="M3486 2083 c-3 -15 -10 -71 -16 -123 -6 -52 -13 -105 -16 -117 -4
-21 -1 -23 36 -23 l41 0 -6 63 c-13 129 -25 220 -29 224 -2 3 -7 -8 -10 -24z"/>
<path d="M2216 1059 c-9 -52 -26 -211 -26 -236 0 -20 5 -23 35 -23 27 0 35 4
35 18 -1 39 -28 264 -33 269 -3 3 -8 -10 -11 -28z"/>
<path d="M3110 995 l0 -95 40 0 40 0 0 95 0 95 -40 0 -40 0 0 -95z"/>
<path d="M8129 7033 c-193 -197 -269 -294 -380 -488 -34 -59 -34 -62 -33 -175
1 -117 12 -177 44 -240 9 -19 33 -66 53 -105 19 -38 54 -97 78 -130 24 -33 57
-80 73 -105 32 -50 164 -190 179 -190 5 0 27 -15 50 -34 30 -24 46 -47 54 -78
14 -48 19 -241 10 -331 -5 -53 -35 -120 -61 -140 -15 -11 -103 1 -137 19 -48
24 -158 134 -192 190 -17 30 -35 54 -39 54 -10 0 -10 -14 -2 -23 14 -14 52
-143 45 -150 -5 -5 -1 -25 9 -45 25 -52 33 -82 22 -82 -19 0 -44 40 -67 106
-33 93 -45 59 -14 -39 25 -80 103 -204 145 -232 106 -69 92 -139 -33 -153 -24
-2 -43 -9 -43 -15 0 -19 49 -75 85 -97 45 -28 127 -50 188 -50 l47 0 0 -62 c2
-160 13 -375 21 -390 5 -9 9 -31 9 -48 0 -31 42 -179 60 -212 6 -10 10 -24 10
-31 0 -8 9 -22 20 -32 12 -11 32 -42 46 -69 24 -50 56 -86 76 -86 6 0 5 6 -2
15 -7 8 -9 15 -4 15 4 0 -10 19 -32 43 -56 58 -100 157 -123 274 -36 186 -52
664 -23 710 5 8 20 8 52 1 43 -10 109 1 172 27 15 6 15 4 6 -17 -8 -17 -20
-23 -45 -24 -42 -1 -48 -7 -45 -51 2 -19 -3 -45 -11 -57 -19 -30 -41 -131 -32
-146 10 -16 28 27 46 104 11 51 27 74 30 44 5 -47 -2 -123 -13 -136 -21 -25
-16 -252 7 -329 15 -48 22 -60 32 -51 7 6 13 21 13 34 0 12 5 26 11 30 9 5 10
-41 6 -172 -3 -99 -7 -190 -10 -204 -8 -36 -10 -86 -8 -155 l3 -60 14 33 c8
18 12 36 10 40 -3 5 2 55 10 112 22 155 52 503 54 628 0 31 -24 28 -40 -5 -7
-16 -14 -23 -17 -17 -9 25 36 415 51 444 64 121 96 195 96 218 0 28 11 28 98
-3 39 -14 93 -25 119 -25 27 0 147 -11 268 -25 237 -27 305 -32 635 -40 237
-5 432 7 749 50 235 31 297 41 395 66 46 11 83 16 89 10 4 -4 11 -46 13 -92 6
-101 33 -168 83 -209 42 -35 33 -40 -12 -8 -43 30 -77 68 -77 84 0 7 -6 11
-13 8 -9 -3 -13 6 -14 32 -1 20 -7 41 -15 45 -9 7 -10 11 -2 17 7 4 11 19 9
34 -4 31 -29 71 -38 61 -4 -3 -3 -11 3 -18 5 -6 10 -53 11 -104 1 -77 -2 -96
-16 -109 -13 -13 -19 -14 -22 -4 -3 6 -11 12 -19 12 -8 0 -14 -6 -14 -12 0 -9
-3 -8 -10 2 -8 13 -10 13 -15 0 -3 -9 -4 -31 -2 -50 4 -32 7 -35 40 -35 42 0
71 -20 44 -31 -10 -3 -23 -1 -30 4 -8 7 -18 7 -27 2 -24 -15 -6 -20 78 -22 45
-1 82 -4 82 -7 0 -11 -15 -26 -34 -37 -11 -6 -21 -16 -22 -22 -1 -7 0 -8 3 -2
7 14 35 12 56 -4 13 -10 15 -16 6 -21 -6 -4 -14 -3 -18 4 -5 7 -13 4 -24 -9
-17 -20 -9 -28 9 -10 7 7 16 4 29 -10 17 -19 17 -20 -9 -29 -28 -11 -36 -31
-12 -31 15 0 26 -40 22 -77 -2 -24 -16 -44 -16 -25 0 7 -7 12 -16 12 -12 0
-15 -7 -12 -25 3 -15 0 -25 -8 -27 -11 -2 -11 -8 1 -32 19 -35 19 -63 1 -73
-18 -11 -31 -53 -15 -53 8 0 9 -3 0 -13 -6 -8 -8 -16 -5 -19 2 -3 -3 -24 -12
-47 -9 -23 -14 -50 -11 -61 3 -11 0 -18 -7 -17 -6 1 -10 -6 -8 -15 2 -10 -1
-18 -6 -18 -18 0 -20 -51 -3 -68 15 -15 15 -15 -1 -9 -12 4 -18 2 -18 -8 0 -8
-4 -15 -10 -15 -5 0 -10 -11 -10 -25 0 -14 -5 -25 -11 -25 -5 0 -9 -8 -7 -17
1 -10 -5 -33 -15 -52 -9 -18 -14 -37 -11 -42 3 -5 -5 -23 -16 -40 -12 -16 -20
-33 -16 -36 3 -3 8 2 12 11 8 22 24 20 24 -3 0 -10 -9 -21 -20 -24 -20 -5 -28
-27 -10 -27 6 0 10 -7 10 -15 0 -8 5 -15 10 -15 6 0 10 -10 10 -22 -1 -22 -1
-22 -12 -3 -26 46 -63 61 -39 17 14 -27 14 -62 0 -62 -8 0 -9 -14 -5 -42 3
-24 3 -38 -1 -32 -5 6 -15 13 -24 16 -13 5 -16 2 -12 -13 3 -10 11 -19 18 -19
16 0 30 -33 16 -38 -6 -2 -13 -2 -17 0 -8 4 -34 -59 -34 -83 0 -11 5 -19 10
-19 6 0 10 5 10 12 0 6 2 9 5 6 3 -3 0 -18 -7 -33 -11 -25 -13 -26 -26 -8 -14
17 -14 17 -8 0 3 -10 6 -23 6 -29 0 -6 6 -8 13 -5 11 4 11 -2 3 -28 -8 -24
-14 -31 -22 -24 -9 7 -14 4 -19 -10 -3 -12 -11 -21 -16 -21 -6 0 -8 -4 -5 -9
3 -5 -2 -8 -12 -7 -10 0 -17 -7 -18 -19 -2 -39 -16 -66 -31 -61 -11 4 -13 1
-8 -14 5 -14 2 -20 -9 -20 -9 0 -16 -6 -16 -14 0 -7 -10 -16 -22 -20 -14 -4
-19 -9 -12 -13 6 -5 14 -16 17 -27 6 -15 3 -17 -12 -13 -20 5 -43 -14 -54 -46
-4 -9 -18 -22 -33 -27 -14 -6 -28 -19 -31 -30 -3 -11 -8 -20 -12 -20 -4 0 -17
-10 -30 -21 -16 -15 -21 -28 -17 -45 5 -19 2 -24 -14 -24 -11 0 -23 -7 -26
-15 -5 -11 -10 -12 -18 -5 -9 7 -19 5 -32 -6 -18 -15 -18 -15 4 -9 13 4 22 2
22 -4 0 -6 -13 -11 -29 -11 -16 0 -42 -5 -56 -10 -21 -8 -25 -13 -16 -23 8
-10 6 -19 -10 -35 -23 -26 -31 -28 -23 -7 4 8 1 15 -4 15 -18 0 -24 -20 -12
-35 13 -15 4 -20 -29 -16 -7 2 -10 -2 -6 -8 3 -7 -2 -11 -14 -11 -12 0 -21 -6
-21 -13 0 -7 -15 -21 -34 -31 -19 -10 -53 -35 -75 -56 -55 -52 -124 -67 -236
-51 -44 6 -116 13 -160 17 -44 4 -89 8 -100 10 -11 2 -36 7 -55 10 -19 3 -75
26 -125 50 -82 40 -100 55 -208 168 -120 126 -141 151 -275 316 -43 52 -89
107 -102 122 -33 36 -60 71 -130 174 -39 57 -61 82 -65 72 -7 -18 84 -182 123
-223 16 -17 48 -59 72 -95 24 -36 66 -92 95 -125 28 -33 64 -78 81 -100 29
-41 53 -67 126 -142 23 -24 38 -46 35 -50 -4 -4 -15 3 -23 16 -11 15 -20 19
-26 13 -13 -13 -2 -32 18 -32 8 0 14 -4 14 -10 0 -5 14 -10 30 -10 23 0 46
-14 98 -62 37 -34 69 -64 72 -68 49 -53 102 -66 345 -90 222 -21 273 -19 350
10 11 5 36 14 55 21 46 17 150 87 150 101 0 6 3 8 7 5 3 -4 17 0 30 8 13 9 29
13 35 9 7 -4 8 -3 4 5 -10 15 35 32 52 19 8 -7 12 -7 12 2 0 7 6 10 14 7 9 -4
12 0 9 13 -5 18 27 45 106 90 14 8 30 21 34 28 4 6 12 12 17 12 12 0 69 39
101 70 14 14 45 43 69 65 23 22 72 78 109 125 36 47 72 92 80 100 12 12 13 11
6 -10 -4 -14 -11 -26 -16 -28 -4 -2 -6 -9 -3 -17 3 -7 1 -16 -5 -20 -6 -3 -11
-12 -11 -18 0 -7 7 -4 14 6 12 15 15 16 26 2 11 -13 15 -13 22 -3 6 8 7 1 3
-19 -4 -22 -3 -33 5 -33 6 0 9 4 6 9 -3 5 1 14 9 21 12 10 15 9 15 -4 0 -9 4
-16 9 -16 5 0 11 72 13 160 2 97 7 163 14 170 8 8 13 -49 17 -202 4 -120 13
-244 21 -283 8 -38 25 -124 37 -190 30 -165 97 -466 120 -540 10 -33 19 -70
19 -83 0 -20 -3 -21 -21 -12 -22 12 -79 4 -79 -11 0 -16 -30 -9 -68 16 -45 31
-47 31 -168 0 -145 -37 -265 -84 -325 -127 -45 -33 -89 -113 -89 -162 0 -31
-5 -38 -37 -54 -21 -11 -76 -31 -123 -46 -76 -25 -338 -127 -492 -192 -32 -13
-86 -36 -120 -50 -121 -51 -154 -66 -302 -140 -82 -41 -161 -83 -175 -93 -85
-60 -422 -198 -502 -205 -53 -4 -100 -21 -289 -100 -96 -41 -96 -41 -116 -21
-9 8 -27 15 -42 15 -42 0 -48 10 -55 80 -29 292 -42 401 -67 550 -11 63 -31
190 -45 281 -13 91 -33 189 -44 217 -27 68 -30 131 -8 143 9 6 24 24 33 42 9
18 25 40 35 50 35 33 15 175 -42 314 l-32 75 20 47 c11 27 25 45 34 44 35 -6
76 -15 94 -23 11 -4 49 -13 85 -19 36 -7 96 -24 135 -37 l70 -25 24 28 c62 74
76 90 98 114 36 40 69 171 97 391 3 26 2 49 -3 52 -5 3 -13 -31 -19 -77 -6
-45 -19 -107 -28 -137 l-17 -55 -171 -32 c-364 -69 -417 -76 -450 -65 -88 31
-176 44 -293 43 -172 -2 -293 -29 -307 -69 -3 -9 -28 -46 -56 -82 -27 -36 -56
-80 -64 -97 -8 -18 -20 -33 -26 -33 -25 0 -128 -82 -141 -111 -16 -40 -1 -136
43 -276 32 -104 69 -161 104 -162 12 -1 27 -7 33 -14 6 -8 35 -186 66 -398 30
-211 68 -460 84 -554 16 -93 32 -195 36 -225 l7 -55 -43 -19 c-42 -19 -137
-103 -156 -139 -7 -14 -24 -18 -79 -21 -72 -2 -136 -26 -131 -49 1 -7 -7 -11
-20 -9 -13 2 -23 -1 -23 -6 0 -5 -10 -10 -22 -10 -33 0 -172 -48 -243 -83 -33
-17 -116 -53 -185 -81 -131 -53 -165 -68 -269 -116 l-63 -29 43 -6 c24 -3 178
-6 341 -7 253 -1 297 1 292 13 -5 14 17 144 33 197 14 45 47 90 65 90 10 0 18
-4 18 -9 0 -5 8 -11 19 -14 17 -4 18 -15 18 -113 0 -73 -4 -118 -14 -136 l-14
-28 243 2 c134 1 224 3 202 5 -33 3 -41 8 -38 21 1 9 10 46 18 82 11 45 13 77
7 102 -14 61 -17 60 387 133 107 19 208 42 225 51 32 15 40 18 105 30 29 6 32
4 32 -19 0 -42 34 -137 133 -367 5 -14 10 -28 9 -33 -1 -4 33 -7 76 -7 l79 0
18 39 c10 22 24 42 31 45 8 3 49 -13 91 -35 43 -22 69 -37 58 -33 -37 13 -93
16 -99 5 -12 -19 -29 -12 -23 9 3 13 0 20 -9 20 -8 0 -14 -5 -14 -11 0 -7 -8
-18 -17 -25 -15 -11 12 -13 172 -13 210 0 207 -2 103 57 -27 15 -48 32 -48 37
0 30 340 213 615 330 188 81 501 199 720 273 189 63 277 86 683 174 53 11 53
11 85 -20 34 -35 31 -56 -3 -24 -13 12 -29 18 -38 15 -12 -5 -14 -2 -9 11 6
14 3 16 -16 10 -12 -4 -25 -11 -28 -16 -3 -5 -9 -9 -13 -9 -20 3 -26 -1 -26
-14 0 -9 6 -12 17 -8 12 5 15 2 11 -9 -5 -13 8 -18 75 -28 45 -7 106 -11 135
-11 30 1 51 -2 48 -7 -6 -10 20 -8 46 3 10 4 36 5 58 3 22 -2 41 1 43 6 2 5
13 4 25 -3 12 -6 22 -8 22 -2 0 5 12 11 28 14 50 9 147 38 170 49 22 11 22 13
5 19 -10 4 -31 8 -48 9 -26 1 -27 3 -10 10 11 5 36 9 55 9 25 1 45 10 68 30
30 28 34 39 36 110 1 13 7 26 15 29 10 3 12 -1 8 -17 -3 -11 -1 -24 4 -27 5
-3 9 -14 9 -25 0 -26 36 -25 43 2 3 12 10 18 16 14 7 -3 11 2 11 14 0 11 -4
22 -9 26 -6 3 -9 14 -8 25 1 18 3 18 23 5 20 -13 22 -12 33 11 15 34 14 51 -4
58 -8 3 -15 10 -15 16 0 14 33 13 48 -2 15 -15 15 -8 2 27 -5 14 -6 24 -1 21
14 -9 28 16 36 62 7 41 6 42 -17 33 -13 -5 -40 -20 -60 -33 -20 -14 -49 -30
-66 -37 -28 -12 -29 -14 -20 -48 5 -19 7 -41 4 -49 -3 -7 -1 -16 4 -19 15 -9
12 -22 -4 -22 -9 0 -17 15 -21 36 -3 20 -8 48 -11 63 -4 21 0 29 20 40 49 26
172 103 266 167 114 77 152 95 261 120 150 35 450 52 632 34 l67 -6 0 -33 c0
-24 5 -34 15 -34 13 0 15 51 15 401 0 316 -3 400 -12 397 -7 -3 -14 -16 -16
-30 l-3 -25 -172 54 c-95 29 -224 70 -287 89 -368 115 -747 212 -1005 259
-221 39 -259 47 -272 58 -9 7 -13 45 -13 126 0 64 -4 131 -10 150 -13 47 6
101 46 132 18 13 39 41 48 62 21 54 43 58 80 13 18 -20 47 -66 66 -102 43 -82
64 -96 79 -52 6 17 11 50 11 74 0 53 -41 165 -75 206 -31 37 -31 46 1 60 22
10 32 9 65 -10 l39 -22 -24 43 c-43 81 -43 81 42 166 100 98 126 134 158 212
36 88 101 305 118 398 8 42 30 108 49 146 19 39 37 83 41 98 6 24 11 28 34 25
25 -3 27 -7 30 -55 5 -92 37 -60 72 72 14 57 12 157 -4 196 -8 19 -30 56 -49
83 l-35 49 33 36 c62 67 75 89 90 152 17 73 20 185 5 194 -5 3 -10 2 -10 -4 0
-6 -6 -8 -12 -6 -7 3 -32 -13 -56 -35 -39 -35 -132 -80 -166 -80 -18 0 -46 33
-46 54 0 9 17 51 38 94 22 42 45 98 52 124 13 49 27 60 111 87 20 7 45 21 55
32 10 11 40 30 67 41 49 21 134 105 164 163 25 46 35 167 18 218 -21 67 -66
170 -85 197 -10 14 -33 53 -51 85 -60 113 -141 220 -373 495 -170 201 -227
262 -426 457 l-155 153 -1082 0 c-1072 0 -1083 0 -1095 -20 -13 -21 -62 -28
-73 -10 -3 6 -15 10 -26 10 -10 0 -19 5 -19 10 0 12 -336 14 -342 3 -5 -13
-126 -113 -135 -113 -4 0 20 27 55 60 l62 60 -53 0 -53 0 -165 -167z m1916
-332 c17 -7 25 -15 18 -19 -6 -4 -9 -19 -8 -34 7 -64 17 -108 26 -114 5 -3 9
-16 9 -29 0 -17 7 -25 28 -30 27 -7 27 -7 5 -18 -30 -13 -29 -21 8 -56 l31
-30 -35 -6 c-45 -9 -57 -42 -21 -55 42 -16 29 -38 -31 -50 -56 -12 -69 -24
-37 -34 23 -7 -161 1 -283 13 -55 6 -165 11 -245 11 -130 1 -143 2 -126 15 18
14 19 15 2 15 -13 0 -16 5 -12 17 4 10 -2 24 -15 36 -19 18 -21 27 -15 76 4
34 13 59 22 64 11 6 12 12 4 22 -13 15 25 125 43 125 7 0 4 7 -5 14 -30 23 0
44 87 60 120 23 135 24 335 21 116 -1 196 -7 215 -14z m-2125 -35 c0 -2 -8
-10 -17 -17 -16 -13 -17 -12 -4 4 13 16 21 21 21 13z m-130 -192 c-6 -14 -10
-41 -10 -61 0 -34 6 -51 55 -158 12 -27 26 -61 30 -75 4 -14 13 -38 20 -55 32
-75 45 -117 39 -127 -4 -7 -2 -8 4 -4 8 5 12 -1 12 -16 0 -13 4 -28 8 -34 18
-19 75 -127 64 -120 -18 11 -98 137 -135 214 -20 40 -45 87 -56 106 -50 80
-78 287 -45 334 20 29 26 28 14 -4z m4042 -216 c161 -209 267 -390 275 -472 5
-47 2 -61 -20 -99 -29 -48 -57 -77 -57 -58 0 7 -5 9 -12 5 -8 -5 -9 -2 -5 9 4
10 9 46 13 81 8 75 -8 121 -112 329 -35 71 -64 135 -64 143 0 8 -4 14 -9 14
-5 0 -13 10 -17 23 -4 12 -20 41 -36 65 -48 70 -23 48 44 -40z m-2063 -78 c68
-5 128 -13 134 -19 8 -8 6 -11 -7 -11 -9 0 -14 -5 -11 -10 4 -6 1 -18 -6 -26
-11 -13 -10 -18 5 -26 13 -8 15 -13 5 -24 -9 -11 -8 -14 6 -14 20 0 67 -35 58
-44 -3 -3 -43 -6 -87 -6 -86 0 -123 -12 -96 -30 8 -5 30 -10 48 -10 17 0 32
-4 32 -8 0 -5 -17 -8 -37 -6 -104 5 -243 5 -252 -1 -6 -3 -9 -10 -6 -15 3 -4
-5 -10 -18 -14 -29 -8 -146 -7 -175 0 -23 7 -23 7 6 24 16 10 38 20 48 23 14
3 11 5 -8 6 -16 1 -32 9 -38 21 -9 18 -8 20 17 20 25 0 26 1 8 14 -19 13 -17
15 23 31 24 10 39 22 35 28 -4 6 0 8 8 5 8 -2 22 4 32 14 9 10 13 18 7 18 -5
0 -10 4 -10 8 0 5 26 14 58 19 41 8 46 11 20 10 -20 -1 -40 2 -44 6 -4 4 -29
7 -56 7 -26 0 -48 5 -48 10 0 12 180 13 349 0z m-858 -103 c-6 -8 -8 -17 -5
-20 13 -13 -54 -77 -81 -77 -11 0 -26 -5 -33 -12 -17 -17 -25 -3 -11 20 7 11
19 18 28 15 10 -3 12 -2 5 4 -36 28 -20 54 45 74 44 13 65 11 52 -4z m680
-316 c-8 -5 -11 -16 -8 -25 5 -13 21 -16 77 -16 75 0 94 -13 33 -24 -59 -9
-193 -7 -193 3 0 6 10 17 22 25 l22 16 -26 0 c-39 0 -44 18 -6 23 65 8 94 7
79 -2z m-831 -74 c-19 -6 -41 -17 -48 -24 -7 -7 -21 -13 -30 -13 -15 0 -15 2
-2 11 11 7 6 8 -20 3 -58 -11 -26 7 37 21 72 15 110 17 63 2z m-170 -37 c-8
-5 -19 -10 -25 -10 -5 0 -3 5 5 10 8 5 20 10 25 10 6 0 3 -5 -5 -10z m2845
-351 c-4 -18 -1 -20 23 -14 57 14 -113 -99 -242 -161 -250 -120 -398 -155
-766 -184 -140 -10 -315 -25 -388 -31 -145 -13 -640 -5 -702 11 -19 5 -98 14
-175 20 -346 26 -483 56 -701 156 -113 51 -140 82 -148 164 -4 38 -3 40 20 37
13 -2 46 -19 72 -39 69 -52 237 -134 312 -152 36 -9 97 -24 135 -35 72 -19
115 -23 455 -41 107 -5 256 -15 331 -20 486 -38 1076 35 1392 172 38 16 83 30
100 30 33 0 104 27 212 79 72 34 75 35 70 8z m-465 -623 c0 -3 -4 -8 -10 -11
-5 -3 -10 -1 -10 4 0 6 5 11 10 11 6 0 10 -2 10 -4z m-18 -48 c-9 -9 -15 -9
-24 0 -9 9 -7 12 12 12 19 0 21 -3 12 -12z m65 -23 c1 -5 -2 -17 -7 -25 -8
-13 -11 -13 -26 2 -9 9 -13 21 -9 28 8 13 37 10 42 -5z m168 -5 c3 -5 1 -10
-4 -10 -6 0 -11 5 -11 10 0 6 2 10 4 10 3 0 8 -4 11 -10z m-5 -75 c0 -22 -16
-42 -26 -33 -2 3 -1 19 2 36 7 36 24 33 24 -3z m462 -55 c14 -51 15 -76 8
-134 -17 -134 -83 -409 -132 -549 -29 -85 -33 -91 -136 -195 -71 -72 -123
-116 -156 -131 -51 -24 -77 -22 -31 2 l28 14 -39 7 c-22 3 -50 15 -64 25 -23
18 -24 20 -8 38 13 15 15 26 9 48 -5 17 -10 24 -10 18 -1 -7 -10 -13 -21 -13
-12 0 -20 -7 -20 -16 0 -14 3 -14 15 -4 12 10 15 9 14 -6 0 -11 -4 -28 -8 -39
-14 -35 -41 32 -34 83 6 42 23 59 23 23 0 -11 5 -23 10 -26 6 -4 10 6 10 24 0
18 -7 34 -17 40 -10 6 -13 11 -6 11 6 0 14 14 18 30 4 17 11 30 17 30 6 0 7
-7 4 -15 -3 -8 -9 -22 -12 -30 -5 -11 1 -15 22 -16 17 -1 22 -3 12 -6 -10 -2
-18 -13 -18 -24 0 -18 1 -18 21 -1 39 32 42 50 12 65 -26 14 -26 15 -5 21 12
4 20 11 17 16 -8 13 46 22 61 9 8 -6 14 -25 14 -41 0 -20 6 -31 22 -37 l21 -8
-24 -16 -23 -17 21 -21 21 -21 31 23 c17 12 31 26 31 31 0 13 -12 9 -32 -9
-22 -20 -36 -10 -17 13 9 11 22 14 43 10 16 -4 26 -3 23 1 -4 4 7 22 25 40 17
18 29 35 26 39 -4 3 -20 -8 -36 -25 -29 -31 -52 -40 -52 -21 0 6 5 10 11 10
11 0 39 24 39 34 0 3 -7 6 -15 6 -8 0 -15 5 -15 10 0 6 5 10 10 10 6 0 10 14
10 30 0 17 4 30 9 30 12 0 21 -39 10 -46 -19 -11 -8 -24 20 -24 77 0 155 194
160 397 1 48 7 91 13 94 6 4 4 16 -7 32 -17 26 -13 53 7 41 7 -4 7 -9 0 -13
-7 -4 -5 -13 4 -26 13 -17 16 -18 24 -5 13 20 13 53 0 45 -6 -3 -7 1 -4 9 3 9
10 16 14 16 4 0 10 12 13 28 5 25 -2 61 -24 119 -4 11 -5 24 -1 27 14 15 28
-5 44 -64z m-476 -7 c-3 -10 -10 -38 -16 -63 -6 -25 -14 -52 -17 -60 -3 -8 -8
-26 -10 -40 -2 -14 -7 -34 -12 -45 -5 -11 -14 -51 -20 -90 -19 -110 -31 -151
-42 -134 -12 20 -11 99 2 99 5 0 8 3 5 8 -9 15 45 227 63 245 6 6 11 30 11 54
0 37 3 43 21 43 15 0 19 -5 15 -17z m282 -67 c-10 -7 -18 -20 -18 -28 0 -9 -9
-18 -21 -21 -12 -3 -18 -10 -14 -16 3 -6 -1 -11 -9 -11 -9 0 -16 -7 -16 -15 0
-9 -6 -12 -15 -9 -8 4 -15 2 -15 -4 0 -6 6 -13 13 -15 7 -3 6 -6 -5 -6 -9 -1
-19 3 -22 8 -9 15 110 130 134 130 3 0 -3 -6 -12 -13z m-34 -170 c10 -8 15
-19 11 -25 -9 -16 -25 -13 -25 4 0 8 -9 20 -20 27 -11 7 -20 16 -20 21 0 8 23
-3 54 -27z m73 -105 c-5 -106 -19 -176 -52 -251 -2 -3 -6 -15 -10 -28 -6 -17
-11 -20 -21 -11 -7 6 -11 16 -8 23 3 8 -5 16 -18 20 -19 5 -21 8 -8 16 13 9
13 11 0 20 -30 20 -39 6 -20 -30 8 -16 8 -18 -5 -14 -8 4 -15 12 -15 20 0 8
-5 14 -10 14 -6 0 -8 10 -4 24 3 13 1 27 -5 30 -6 4 -11 0 -11 -8 0 -9 -4 -16
-10 -16 -16 0 -11 38 6 48 13 7 14 13 6 28 -6 10 -12 14 -12 8 0 -19 -30 -11
-30 8 0 10 5 18 11 18 5 0 9 8 8 18 -4 40 2 52 22 52 18 0 20 -4 15 -25 -7
-28 -4 -30 25 -15 16 9 19 7 19 -10 0 -11 -4 -20 -10 -20 -5 0 -10 -6 -10 -14
0 -8 -6 -16 -13 -18 -10 -2 -11 -11 -5 -36 5 -18 13 -30 18 -27 6 4 10 1 10
-4 0 -20 18 -11 25 12 6 19 8 16 17 -21 9 -40 11 -42 23 -25 8 10 15 29 15 42
0 24 0 24 -16 5 -15 -18 -15 -17 -10 14 5 27 2 32 -14 32 -11 0 -20 -4 -20
-10 0 -5 -7 -10 -15 -10 -8 0 -15 5 -15 10 0 6 4 10 9 10 16 0 35 70 22 83 -6
6 -11 17 -11 24 0 13 5 10 64 -43 18 -16 26 -19 26 -9 0 8 -9 19 -20 25 -21
11 -28 40 -10 40 6 0 10 7 10 16 0 8 4 13 10 9 9 -5 35 67 33 92 0 7 4 10 9 6
7 -4 9 -48 5 -122z m-2952 109 c-3 -5 -10 -10 -16 -10 -5 0 -9 5 -9 10 0 6 7
10 16 10 8 0 12 -4 9 -10z m2772 3 c-4 -3 -2 -12 4 -20 9 -10 8 -13 -1 -13
-28 0 -65 -56 -114 -172 -9 -20 -15 -25 -26 -17 -10 6 -11 11 -4 17 6 4 28 43
49 87 50 103 64 125 83 125 8 0 12 -3 9 -7z m130 -65 c-3 -8 -6 -5 -6 6 -1 11
2 17 5 13 3 -3 4 -12 1 -19z m-73 -23 c-5 -12 -10 -13 -20 -4 -19 15 -18 19 6
19 13 0 18 -5 14 -15z m-97 -191 c-3 -17 0 -28 10 -31 12 -5 12 -7 1 -14 -7
-5 -16 -9 -20 -9 -10 0 -11 64 -1 73 12 13 15 7 10 -19z m43 -74 c0 -5 -4 -10
-10 -10 -5 0 -10 5 -10 10 0 6 5 10 10 10 6 0 10 -4 10 -10z m-30 -10 c0 -5
-2 -10 -4 -10 -3 0 -8 5 -11 10 -3 6 -1 10 4 10 6 0 11 -4 11 -10z m-323 -332
c-3 -8 -6 -5 -6 6 -1 11 2 17 5 13 3 -3 4 -12 1 -19z m-5 -63 c-2 -19 -6 -35
-8 -35 -2 0 -4 16 -4 35 0 19 4 35 8 35 4 0 6 -16 4 -35z m-21 -98 c-8 -8 -11
-4 -11 14 0 33 14 47 18 19 2 -12 -1 -27 -7 -33z m-9 -42 c-2 -14 -6 -25 -8
-25 -2 0 -4 11 -4 25 0 14 4 25 9 25 4 0 6 -11 3 -25z m-352 -575 c0 -5 -9
-14 -20 -20 -14 -7 -20 -7 -20 0 0 5 7 10 15 10 8 0 15 5 15 10 0 6 2 10 5 10
3 0 5 -4 5 -10z m-83 -57 c-9 -9 -20 -13 -24 -9 -5 5 -2 11 5 13 6 3 12 12 12
21 0 12 3 13 12 4 10 -10 8 -16 -5 -29z m-7 -33 c0 -5 -5 -10 -11 -10 -5 0 -7
5 -4 10 3 6 8 10 11 10 2 0 4 -4 4 -10z m-56 -15 c-6 -16 -24 -21 -24 -7 0 11
11 22 21 22 5 0 6 -7 3 -15z m-2858 -77 c-49 -4 -91 -6 -93 -4 -8 7 122 21
152 17 18 -3 -5 -8 -59 -13z m814 -8 c-14 -4 -38 -8 -55 -8 l-30 0 30 8 c17 4
41 8 55 8 l25 0 -25 -8z m-933 -6 c-3 -3 -12 -4 -19 -1 -8 3 -5 6 6 6 11 1 17
-2 13 -5z m836 -11 c-7 -2 -21 -2 -30 0 -10 3 -4 5 12 5 17 0 24 -2 18 -5z
m-131 -23 c-45 -11 -87 -22 -92 -25 -6 -3 -10 -2 -10 4 0 5 26 15 58 21 31 6
62 13 67 15 6 2 21 3 35 3 14 0 -12 -8 -58 -18z m3148 -10 c16 -5 2 -6 -35 -3
-33 3 -62 7 -64 9 -8 7 74 2 99 -6z m174 -31 c69 -19 33 -17 -59 2 -67 14 -76
17 -35 13 30 -3 72 -10 94 -15z m-1164 -38 c0 -12 -20 -25 -27 -18 -7 7 6 27
18 27 5 0 9 -4 9 -9z m1347 -7 c-3 -3 -12 -4 -19 -1 -8 3 -5 6 6 6 11 1 17 -2
13 -5z m83 -19 l45 -15 -40 6 c-22 3 -47 10 -55 15 -23 13 0 10 50 -6z m142
-35 c26 -7 46 -16 43 -20 -2 -4 -30 2 -62 12 -57 19 -88 36 -48 25 11 -3 41
-10 67 -17z m143 -41 c14 -7 7 -7 -20 -3 -22 3 -47 10 -55 15 -18 12 44 1 75
-12z m105 -36 c9 -9 -65 9 -74 18 -5 4 8 3 30 -2 21 -6 41 -13 44 -16z m60
-13 c20 -6 21 -8 5 -8 -11 0 -29 3 -40 8 -25 11 1 11 35 0z m95 -31 c15 -15
-17 -10 -45 7 l-25 15 30 -6 c17 -4 34 -11 40 -16z m65 -19 c12 -8 12 -10 -5
-10 -11 0 -27 5 -35 10 -12 8 -12 10 5 10 11 0 27 -5 35 -10z m-4413 -552 c-3
-8 -6 -5 -6 6 -1 11 2 17 5 13 3 -3 4 -12 1 -19z m21 -108 c1 -23 0 -23 -8 -5
-5 11 -8 34 -8 50 0 29 0 29 8 5 4 -14 8 -36 8 -50z m-117 -13 c0 -18 2 -19 7
-5 13 34 29 2 41 -82 7 -47 16 -105 21 -130 25 -130 32 -203 19 -211 -25 -15
-49 9 -49 49 0 21 -7 65 -15 97 -9 33 -17 82 -19 110 -2 27 -8 69 -15 91 -12
44 -11 115 2 107 4 -2 7 -14 8 -26z m126 -49 c-3 -7 -5 -2 -5 12 0 14 2 19 5
13 2 -7 2 -19 0 -25z m-498 -101 c0 -21 -1 -21 -9 -2 -12 28 -12 37 0 30 6 -3
10 -16 9 -28z m2921 -1 c0 -3 -4 -8 -10 -11 -5 -3 -10 -1 -10 4 0 6 5 11 10
11 6 0 10 -2 10 -4z m-45 -36 c-10 -11 -20 -18 -23 -15 -7 6 18 35 31 35 5 0
2 -9 -8 -20z m-49 -83 c-37 -81 -89 -178 -94 -172 -7 7 102 225 113 225 2 0
-7 -24 -19 -53z m-336 -60 c-58 -29 -134 -65 -170 -80 -36 -16 -73 -33 -83
-38 -10 -6 -30 -14 -45 -20 l-27 -9 25 20 c31 24 102 59 200 98 41 17 100 42
130 56 99 45 78 26 -30 -27z m-334 -156 c-6 -10 -66 -33 -66 -26 0 3 15 11 33
19 40 18 39 18 33 7z m1119 -61 c-27 -12 -43 -12 -25 0 8 5 22 9 30 9 10 0 8
-3 -5 -9z m820 -10 c3 -5 1 -10 -4 -10 -6 0 -11 5 -11 10 0 6 2 10 4 10 3 0 8
-4 11 -10z m-880 -8 c-13 -11 -96 -35 -101 -29 -2 2 17 11 43 20 56 18 71 21
58 9z m623 -159 c-10 -2 -26 -2 -35 0 -10 3 -2 5 17 5 19 0 27 -2 18 -5z
m-181 -29 c-3 -3 -12 -4 -19 -1 -8 3 -5 6 6 6 11 1 17 -2 13 -5z m-90 -10 c-3
-3 -12 -4 -19 -1 -8 3 -5 6 6 6 11 1 17 -2 13 -5z m-2053 -130 c9 -33 -5 -48
-33 -39 -21 6 -21 7 -4 36 21 36 29 36 37 3z m31 16 c3 -5 1 -10 -4 -10 -6 0
-11 5 -11 10 0 6 2 10 4 10 3 0 8 -4 11 -10z m5 -40 c0 -5 -5 -10 -11 -10 -5
0 -7 5 -4 10 3 6 8 10 11 10 2 0 4 -4 4 -10z m-1095 -30 c-3 -5 -30 -10 -58
-10 -56 0 -214 -32 -247 -50 -11 -6 -20 -7 -20 -2 0 22 102 49 230 62 41 4 81
8 88 8 7 1 10 -2 7 -8z m-5 -40 c0 -5 -4 -10 -9 -10 -5 0 -12 -7 -15 -16 -5
-13 -2 -15 14 -11 32 8 23 -1 -17 -19 -111 -49 -183 -46 -183 7 0 36 7 40 93
49 107 11 117 11 117 0z m396 -39 c-34 -37 -63 -201 -35 -201 5 0 9 -8 9 -17
0 -34 -30 23 -40 76 -13 68 13 152 50 161 33 9 37 4 16 -19z m74 -51 c0 -11 4
-20 10 -20 10 0 25 -53 33 -117 4 -33 2 -43 -9 -43 -8 0 -14 10 -14 23 0 18
-2 19 -10 7 -5 -8 -10 -10 -10 -5 0 6 -4 3 -10 -5 -8 -12 -10 -12 -16 3 -9 25
4 67 21 67 8 0 15 5 15 11 0 7 -7 8 -17 4 -42 -18 -58 -16 -69 8 -12 27 1 67
23 67 7 0 13 5 13 10 0 6 9 10 20 10 13 0 20 -7 20 -20z m-1027 -62 c-23 -23
-45 -40 -47 -37 -7 7 64 79 77 79 7 0 -7 -19 -30 -42z m161 6 c3 -8 2 -12 -4
-9 -6 3 -10 10 -10 16 0 14 7 11 14 -7z m810 -211 c22 -63 14 -65 -12 -3 -11
27 -17 50 -12 50 4 0 15 -21 24 -47z m-1478 -179 c-4 -9 -9 -15 -11 -12 -3 3
-3 13 1 22 4 9 9 15 11 12 3 -3 3 -13 -1 -22z m-472 -28 c-10 -8 -21 -12 -24
-10 -5 6 21 24 34 24 6 0 1 -6 -10 -14z"/>
<path d="M9830 6110 c0 -5 5 -10 11 -10 5 0 7 5 4 10 -3 6 -8 10 -11 10 -2 0
-4 -4 -4 -10z"/>
<path d="M11183 3753 c-4 -9 -1 -19 5 -21 17 -5 26 1 27 21 2 22 -24 22 -32 0z"/>
<path d="M11240 3511 c0 -6 -10 -12 -22 -12 -17 -1 -18 -3 -6 -6 23 -6 55 12
39 21 -6 4 -11 2 -11 -3z"/>
<path d="M7900 1170 c0 -5 5 -10 10 -10 6 0 10 5 10 10 0 6 -4 10 -10 10 -5 0
-10 -4 -10 -10z"/>
<path d="M3467 6663 c18 -2 50 -2 70 0 21 2 7 4 -32 4 -38 0 -55 -2 -38 -4z"/>
<path d="M6629 6591 c-16 -28 -16 -29 9 -40 32 -15 41 -5 35 37 -6 40 -23 41
-44 3z"/>
<path d="M6542 6478 c-6 -13 -16 -41 -23 -63 -18 -61 -47 -113 -68 -125 -29
-15 -76 -12 -116 7 -44 21 -51 14 -58 -59 -5 -57 -5 -58 34 -90 42 -35 48 -60
23 -96 -11 -17 -25 -22 -57 -22 -47 -1 -64 -11 -89 -55 -9 -17 -27 -33 -40
-36 -107 -30 -113 -33 -115 -61 -1 -17 3 -28 11 -28 12 0 36 -59 36 -91 1 -18
39 -64 66 -78 35 -17 46 7 42 89 -2 51 0 70 10 70 6 0 12 -5 12 -10 0 -6 11
-16 25 -22 14 -6 33 -27 42 -46 17 -36 85 -92 112 -92 9 0 25 -7 35 -15 11 -8
28 -15 38 -15 11 0 18 -7 18 -20 0 -11 -7 -20 -15 -20 -18 0 -40 -39 -28 -51
13 -13 83 1 83 18 0 7 -7 25 -16 38 -15 23 -15 24 23 43 21 11 50 31 65 45 15
14 44 27 70 31 26 4 51 15 62 27 9 11 30 25 46 31 32 11 38 23 16 31 -8 3 -22
30 -31 59 -10 29 -21 58 -25 63 -13 18 -4 347 10 381 13 30 12 33 -21 65 -19
19 -41 34 -49 35 -8 1 -28 2 -43 3 -23 1 -31 8 -44 41 -18 46 -25 49 -41 18z
m57 -348 c10 0 71 -127 71 -149 0 -6 9 -16 20 -23 11 -7 20 -20 20 -29 0 -9 7
-36 15 -59 12 -34 13 -46 3 -57 -10 -13 -14 -12 -29 6 -10 12 -19 21 -22 21
-3 0 -20 14 -38 31 -24 23 -38 29 -57 24 -27 -7 -62 2 -62 16 0 5 9 9 20 9 13
0 20 7 20 20 0 11 4 20 9 20 15 0 20 39 6 50 -7 6 -21 27 -30 46 -15 33 -15
37 0 60 10 16 22 23 32 20 8 -3 18 -6 22 -6z"/>
<path d="M3519 6438 c-1 -2 -20 -157 -43 -345 l-42 -343 70 0 69 0 -6 68 c-4
37 -7 91 -7 120 0 33 -4 51 -10 47 -6 -4 -10 17 -9 57 1 51 3 57 9 33 6 -23 8
-15 8 35 0 36 3 125 7 198 l8 132 -27 0 c-14 0 -27 -1 -27 -2z"/>
<path d="M4296 6113 c-21 -181 -40 -336 -43 -345 -4 -16 4 -18 65 -18 l70 0 1
345 2 345 -29 0 -28 0 -38 -327z"/>
<path d="M3220 6250 c0 -5 5 -10 10 -10 6 0 10 5 10 10 0 6 -4 10 -10 10 -5 0
-10 -4 -10 -10z"/>
<path d="M3227 6218 c-2 -7 -1 -22 4 -33 6 -16 8 -14 8 13 1 33 -4 41 -12 20z"/>
<path d="M6260 6140 c-7 -14 -8 -26 -1 -38 6 -9 11 -15 11 -12 0 3 4 20 9 38
11 36 -2 44 -19 12z"/>
<path d="M5863 5904 c-3 -8 -1 -26 6 -40 6 -14 11 -52 11 -84 0 -53 2 -60 19
-60 16 0 21 10 27 46 12 83 -40 198 -63 138z"/>
<path d="M5745 5880 c-3 -5 1 -10 9 -10 9 0 16 5 16 10 0 6 -4 10 -9 10 -6 0
-13 -4 -16 -10z"/>
<path d="M6830 5771 c0 -13 26 -32 33 -24 8 7 -11 33 -24 33 -5 0 -9 -4 -9 -9z"/>
<path d="M6200 5612 c0 -14 11 -21 26 -15 8 3 11 9 8 14 -7 11 -34 12 -34 1z"/>
<path d="M6276 5527 c-11 -8 -17 -23 -14 -37 2 -19 11 -26 42 -32 25 -5 43 -4
52 3 19 16 18 59 -1 59 -8 0 -15 5 -15 10 0 14 -43 12 -64 -3z"/>
<path d="M6356 5416 c-35 -8 -51 -18 -57 -33 -10 -27 7 -88 30 -111 28 -26 50
-75 53 -116 1 -26 12 -47 40 -76 21 -22 43 -40 48 -40 18 0 10 -28 -9 -33 -10
-2 -21 -17 -24 -33 -9 -48 -2 -165 10 -172 10 -6 32 -77 33 -104 0 -14 -31 -8
-36 7 -4 8 -12 15 -19 15 -7 0 -16 15 -20 33 -4 17 -20 49 -36 69 -16 20 -29
42 -29 47 0 6 -4 11 -9 11 -4 0 -6 12 -4 28 2 18 -3 12 -16 -20 -11 -25 -21
-70 -22 -100 -4 -79 19 -265 40 -328 36 -104 44 -139 38 -159 -3 -15 1 -25 14
-31 14 -8 19 -7 19 1 0 8 12 9 38 4 51 -9 90 -34 97 -62 3 -13 10 -23 15 -23
6 0 10 -9 10 -20 0 -11 7 -23 15 -26 8 -3 17 -14 20 -25 9 -27 40 -24 64 7 25
31 26 51 7 73 -8 9 -17 27 -21 42 -6 22 -1 27 42 48 39 18 54 20 76 12 28 -11
39 -9 94 15 46 21 63 50 63 111 0 44 -3 53 -17 53 -16 0 -29 18 -50 68 -4 9
10 12 51 12 51 0 56 -2 56 -22 l1 -23 18 23 c11 12 27 22 36 22 9 0 19 9 22
19 3 11 15 22 28 25 12 3 25 11 28 18 7 21 -12 60 -32 65 -11 3 -22 11 -25 19
-3 8 -12 14 -21 14 -8 0 -15 8 -15 18 0 20 -42 62 -62 62 -6 0 -19 6 -27 13
-9 8 -37 20 -63 27 -28 7 -48 18 -48 26 0 8 -7 14 -16 14 -15 0 -15 2 0 25 9
13 16 29 16 35 0 12 -37 50 -49 50 -11 0 -21 25 -21 51 0 10 -6 19 -13 19 -21
0 -57 44 -57 68 0 12 -4 22 -10 22 -5 0 -10 11 -10 25 0 16 -6 25 -16 25 -13
0 -15 11 -12 62 3 59 2 62 -27 79 -16 10 -36 18 -44 18 -7 1 -29 15 -48 31
-18 17 -40 30 -48 30 -7 0 -19 2 -27 4 -7 2 -35 -2 -62 -8z m202 -288 c2 -4
17 -8 32 -8 31 0 60 -30 60 -62 0 -27 -39 -22 -71 8 -27 26 -29 26 -67 11 -22
-9 -42 -13 -46 -10 -10 10 -7 58 5 70 12 12 82 5 87 -9z m-115 -505 c3 -10 8
-31 12 -48 4 -16 14 -38 22 -47 9 -10 16 -32 15 -50 -1 -37 12 -64 45 -95 27
-26 30 -43 7 -43 -9 0 -21 14 -27 30 -6 17 -17 30 -24 30 -7 0 -13 5 -13 10 0
6 -22 41 -50 77 -56 74 -60 95 -27 128 28 28 34 30 40 8z m197 -38 c0 -8 -6
-15 -14 -15 -7 0 -19 7 -26 15 -11 13 -8 15 14 15 16 0 26 -5 26 -15z"/>
<path d="M7817 5203 c-4 -3 -7 -11 -7 -17 0 -6 5 -5 12 2 6 6 9 14 7 17 -3 3
-9 2 -12 -2z"/>
<path d="M7840 5141 c0 -6 4 -13 10 -16 6 -3 7 1 4 9 -7 18 -14 21 -14 7z"/>
<path d="M6310 5030 c0 -33 14 -40 28 -12 12 21 5 42 -14 42 -9 0 -14 -11 -14
-30z"/>
<path d="M10866 4899 c-16 -15 -14 -17 28 -17 25 -1 48 4 52 10 5 7 2 9 -9 5
-9 -3 -19 -2 -22 3 -3 4 1 10 7 13 7 2 1 4 -13 3 -14 0 -33 -8 -43 -17z"/>
<path d="M10830 4840 c0 -5 7 -10 16 -10 8 0 12 5 9 10 -3 6 -10 10 -16 10 -5
0 -9 -4 -9 -10z"/>
<path d="M10785 4820 c3 -5 8 -10 11 -10 2 0 4 5 4 10 0 6 -5 10 -11 10 -5 0
-7 -4 -4 -10z"/>
<path d="M8890 4777 c-63 -27 -75 -36 -77 -57 -1 -14 -4 -36 -7 -49 l-5 -24
78 7 c42 3 80 3 84 0 4 -4 -2 -19 -13 -34 -24 -33 -26 -60 -5 -60 8 0 15 4 15
8 0 10 45 32 65 32 8 0 15 -8 15 -17 0 -10 9 -33 20 -50 16 -28 17 -33 5 -33
-9 0 -26 6 -38 14 -12 8 -32 17 -44 20 -17 6 -22 3 -20 -13 2 -35 66 -57 225
-78 57 -7 112 4 112 22 0 8 -5 15 -11 15 -6 0 -1 13 10 29 12 16 21 36 21 44
0 28 19 28 51 0 29 -27 69 -48 69 -37 0 12 -51 84 -67 94 -14 8 4 10 77 8 l95
-3 -3 25 c-5 48 -40 69 -173 100 -139 34 -338 70 -378 70 -14 0 -60 -15 -101
-33z m580 -123 c0 -8 -4 -12 -10 -9 -5 3 -10 13 -10 21 0 8 5 12 10 9 6 -3 10
-13 10 -21z m-285 -51 c4 -12 -1 -24 -14 -34 -38 -31 8 -46 47 -16 19 15 52
16 52 2 0 -7 -12 -26 -28 -44 -24 -28 -33 -31 -74 -30 -26 1 -45 6 -42 11 3 5
-2 18 -11 28 -19 21 -14 85 8 93 26 11 55 6 62 -10z"/>
<path d="M7825 4790 c3 -5 8 -10 11 -10 2 0 4 5 4 10 0 6 -5 10 -11 10 -5 0
-7 -4 -4 -10z"/>
<path d="M10942 4760 c0 -14 2 -19 5 -12 2 6 2 18 0 25 -3 6 -5 1 -5 -13z"/>
<path d="M10619 4749 c-8 -5 -105 -9 -216 -9 -245 0 -449 -16 -478 -38 -36
-28 -66 -71 -68 -99 l-2 -28 134 0 c92 1 127 -2 112 -9 -12 -5 -24 -20 -27
-33 -4 -12 -11 -23 -17 -23 -8 0 -8 -3 0 -11 9 -9 27 0 73 35 33 25 71 47 83
49 19 2 21 -2 19 -34 -6 -77 51 -149 118 -149 18 0 50 5 72 12 34 10 44 20 67
67 27 52 29 54 40 33 6 -12 16 -22 22 -22 6 0 6 7 -1 20 -8 15 -8 20 2 20 27
-1 135 -28 168 -42 41 -17 60 -14 60 13 0 10 5 19 10 19 44 0 -68 193 -130
223 -17 9 -33 11 -41 6z m-264 -214 c0 -15 -8 -21 -29 -23 l-28 -4 23 -24 c25
-27 16 -33 -13 -7 -11 9 -18 30 -18 50 0 33 2 34 33 31 24 -2 32 -8 32 -23z
m56 -69 c-14 -17 -49 -27 -56 -16 -7 11 24 29 49 30 15 0 16 -3 7 -14z"/>
<path d="M6140 4718 c1 -19 29 -53 37 -45 8 9 -14 57 -27 57 -5 0 -10 -6 -10
-12z"/>
<path d="M10770 4669 c7 -11 14 -18 17 -15 8 8 -5 36 -17 36 -7 0 -7 -6 0 -21z"/>
<path d="M10799 4662 c-3 -18 3 -34 18 -49 25 -25 31 -17 9 12 -7 10 -11 26
-9 36 3 9 0 19 -5 23 -5 3 -11 -7 -13 -22z"/>
<path d="M7120 4622 c0 -17 -6 -22 -24 -22 -29 0 -36 -16 -36 -79 0 -54 12
-71 51 -71 19 0 33 10 51 38 l25 38 -29 54 c-35 66 -38 69 -38 42z"/>
<path d="M8325 4538 c-7 -22 -25 -118 -25 -133 0 -23 16 -17 28 10 18 40 27
135 13 135 -6 0 -13 -6 -16 -12z"/>
<path d="M10961 4514 c0 -11 3 -14 6 -6 3 7 2 16 -1 19 -3 4 -6 -2 -5 -13z"/>
<path d="M10489 4428 c-11 -20 -10 -21 3 -11 8 7 18 10 21 6 4 -3 7 1 7 10 0
24 -17 21 -31 -5z"/>
<path d="M10280 4389 c0 -5 9 -9 20 -9 11 0 20 2 20 4 0 2 -9 6 -20 9 -11 3
-20 1 -20 -4z"/>
<path d="M11024 4359 c-3 -6 0 -18 9 -26 13 -13 14 -12 10 11 -6 29 -9 31 -19
15z"/>
<path d="M6960 4295 c0 -24 -5 -35 -14 -35 -8 0 -18 -14 -21 -31 -6 -26 -3
-35 18 -53 34 -29 52 -111 27 -126 -6 -4 -12 -21 -12 -38 -1 -19 -6 -32 -14
-32 -7 0 -18 -9 -24 -19 -5 -11 -17 -27 -27 -36 -25 -25 -5 -51 38 -48 70 5
95 5 127 -2 20 -5 32 -3 32 4 0 21 38 32 81 22 43 -10 94 3 71 18 -5 3 -12 17
-13 31 -4 23 -9 25 -56 28 -56 3 -59 5 -43 25 54 66 58 73 49 89 -12 22 0 28
41 19 34 -7 35 -8 32 -50 -5 -53 20 -81 73 -81 28 0 35 -4 35 -20 0 -25 0 -25
54 0 49 24 94 15 103 -20 7 -26 30 -26 38 0 7 22 -11 53 -26 44 -5 -3 -9 0 -9
5 0 6 -11 11 -25 11 -16 0 -25 6 -25 15 0 8 -7 15 -15 15 -8 0 -15 -7 -15 -15
0 -9 -8 -14 -23 -13 -19 2 -23 8 -23 36 0 21 -6 37 -17 43 -30 17 -48 41 -43
56 10 26 -5 35 -26 16 -15 -13 -22 -15 -25 -5 -3 6 -10 12 -18 12 -7 0 -15 14
-19 30 -3 19 -14 34 -28 40 -19 7 -15 9 22 9 l45 1 -29 25 c-30 25 -56 33 -56
16 0 -6 -23 -11 -52 -13 -46 -3 -53 -6 -58 -27 -6 -28 -30 -41 -30 -17 0 9 -4
16 -10 16 -5 0 -10 17 -10 39 0 35 -3 39 -31 45 -48 9 -49 9 -49 -29z"/>
<path d="M8335 4319 c-11 -16 -1 -19 13 -3 7 8 8 14 3 14 -5 0 -13 -5 -16 -11z"/>
<path d="M6370 4236 c0 -2 7 -9 15 -16 13 -11 14 -10 9 4 -5 14 -24 23 -24 12z"/>
<path d="M8330 4065 c0 -43 76 -173 92 -157 6 6 -4 37 -33 91 -40 78 -59 98
-59 66z"/>
<path d="M7519 3813 c-39 -44 -53 -125 -27 -151 16 -16 43 -15 58 3 19 23 39
18 46 -11 10 -39 -7 -77 -42 -94 -16 -9 -43 -28 -59 -43 -34 -31 -43 -33 -51
-12 -4 9 4 23 20 36 28 22 35 59 12 59 -50 0 -143 -71 -130 -99 4 -9 10 -39
12 -68 4 -50 2 -54 -37 -92 -23 -22 -41 -45 -41 -51 0 -13 -13 -13 -44 1 -14
7 -32 9 -41 5 -14 -5 -15 -8 -2 -20 9 -10 33 -15 64 -14 49 1 112 -24 120 -47
1 -6 -14 -19 -35 -30 -38 -21 -58 -65 -29 -65 9 0 17 3 19 8 2 4 16 17 33 29
22 15 32 34 40 69 l10 49 53 8 c50 8 54 7 81 -22 16 -17 32 -31 36 -31 4 0 18
11 31 25 31 34 46 32 96 -14 23 -22 45 -36 48 -31 3 5 16 7 28 3 17 -4 22 -13
22 -37 0 -18 7 -41 15 -52 14 -18 14 -18 15 6 0 16 8 29 22 35 35 16 49 90 35
189 -11 79 -25 105 -56 106 -8 0 -30 10 -48 23 -31 21 -33 25 -33 81 0 67 -37
146 -68 146 -10 0 -26 6 -37 14 -11 7 -35 17 -52 21 -23 4 -33 12 -33 25 0 10
-8 28 -18 40 -17 21 -18 21 -33 3z m191 -312 c0 -36 -23 -41 -48 -10 l-24 29
36 0 c29 0 36 -4 36 -19z m-237 -127 c3 -4 -1 -13 -9 -21 -17 -18 -29 -11 -21
12 7 16 19 20 30 9z"/>
<path d="M9323 3787 c-19 -23 -22 -59 -7 -74 16 -16 18 -13 28 44 6 35 -6 51
-21 30z"/>
<path d="M9956 3703 c5 -74 6 -78 29 -70 10 5 15 20 15 52 0 51 -14 85 -34 85
-11 0 -13 -15 -10 -67z"/>
<path d="M5970 3665 c0 -8 7 -15 15 -15 8 0 15 7 15 15 0 8 -7 15 -15 15 -8 0
-15 -7 -15 -15z"/>
<path d="M9820 3609 c-30 -17 -72 -44 -92 -60 -32 -25 -45 -29 -101 -29 -59 0
-65 -2 -60 -19 6 -22 40 -31 100 -25 31 2 63 18 120 58 43 29 77 59 75 65 -1
6 5 14 13 17 15 6 21 25 8 23 -5 0 -33 -14 -63 -30z"/>
<path d="M9920 3595 c-19 -22 -8 -25 13 -3 9 10 13 18 8 18 -5 0 -14 -7 -21
-15z"/>
<path d="M5392 3563 c-16 -31 0 -88 22 -80 7 3 19 0 26 -6 9 -9 10 -3 4 28 -8
47 -21 75 -34 75 -5 0 -13 -8 -18 -17z"/>
<path d="M9447 3562 c37 -27 71 -42 69 -29 -8 38 -19 47 -53 45 -32 -2 -33 -3
-16 -16z"/>
<path d="M5735 3560 c3 -5 8 -10 11 -10 2 0 4 5 4 10 0 6 -5 10 -11 10 -5 0
-7 -4 -4 -10z"/>
<path d="M5711 3524 c0 -11 3 -14 6 -6 3 7 2 16 -1 19 -3 4 -6 -2 -5 -13z"/>
<path d="M5732 3520 c0 -14 2 -19 5 -12 2 6 2 18 0 25 -3 6 -5 1 -5 -13z"/>
<path d="M7987 3498 c-8 -29 9 -58 34 -58 25 0 35 25 21 56 -14 30 -48 32 -55
2z"/>
<path d="M5620 3481 c0 -17 6 -21 31 -21 24 0 30 4 27 18 -2 10 -14 18 -31 20
-22 3 -27 -1 -27 -17z"/>
<path d="M6087 3353 c-12 -12 -7 -28 16 -53 13 -14 26 -33 30 -42 12 -32 27
-19 27 22 0 54 -46 100 -73 73z"/>
<path d="M6320 3300 c0 -11 5 -20 10 -20 6 0 10 -6 10 -13 0 -7 14 -35 31 -62
17 -26 28 -56 26 -65 -12 -47 41 -50 61 -4 19 41 15 52 -27 59 -32 5 -40 11
-44 34 -3 16 -12 35 -20 42 -7 8 -16 22 -20 32 -9 23 -27 22 -27 -3z"/>
<path d="M9162 3299 c6 -40 221 -113 313 -107 36 2 50 7 50 18 0 11 -16 17
-55 23 -30 5 -91 17 -135 28 -44 11 -91 18 -105 17 -14 -2 -25 2 -26 10 -1 6
-2 17 -3 22 0 6 -10 10 -22 10 -15 0 -20 -5 -17 -21z"/>
<path d="M5637 3283 c-4 -3 -7 -79 -6 -167 0 -181 2 -181 56 9 29 106 33 131
16 128 -7 -2 -13 3 -13 11 0 20 -39 34 -53 19z"/>
<path d="M8530 3261 c0 -5 5 -13 10 -16 6 -3 10 -2 10 4 0 5 -4 13 -10 16 -5
3 -10 2 -10 -4z"/>
<path d="M6461 3228 c-6 -17 -5 -24 7 -26 15 -4 34 16 29 32 -7 20 -27 17 -36
-6z"/>
<path d="M10105 3241 c-11 -5 -108 -11 -216 -14 -108 -4 -204 -10 -213 -13
-10 -4 -16 -14 -14 -23 3 -14 22 -16 168 -13 198 4 316 18 324 39 12 30 -9 40
-49 24z"/>
<path d="M7520 3164 c0 -8 5 -12 10 -9 6 4 8 11 5 16 -9 14 -15 11 -15 -7z"/>
<path d="M10515 3140 c-16 -31 -20 -80 -7 -80 5 0 15 18 22 40 7 21 17 37 21
34 5 -3 9 1 9 9 0 29 -29 27 -45 -3z"/>
<path d="M7630 3145 c-8 -10 -8 -20 -1 -33 20 -37 34 -42 79 -27 23 8 48 12
56 9 8 -3 17 -1 20 5 4 6 13 8 21 4 8 -3 15 0 15 6 0 6 -17 11 -39 11 -30 0
-40 4 -44 19 -4 16 -14 19 -50 19 -26 0 -51 -5 -57 -13z"/>
<path d="M6965 3142 c-23 -5 -57 -41 -52 -56 2 -6 13 -15 24 -20 21 -10 53
-64 53 -90 0 -16 43 -26 62 -15 22 14 15 112 -10 140 -12 12 -22 26 -22 30 0
10 -31 16 -55 11z"/>
<path d="M10687 3126 c-3 -8 -2 -18 3 -21 13 -8 24 15 12 27 -6 6 -11 4 -15
-6z"/>
<path d="M6520 3100 c0 -17 75 -80 96 -80 21 0 24 5 24 34 0 23 -6 36 -17 42
-21 9 -103 12 -103 4z"/>
<path d="M9505 3016 c36 -55 207 -63 241 -11 13 20 11 20 -89 20 -56 0 -117 4
-135 8 l-34 9 17 -26z"/>
<path d="M6780 3020 c-8 -5 -34 -10 -58 -10 l-44 0 7 -32 c11 -51 33 -64 84
-52 20 4 22 9 18 34 -4 16 -2 30 5 32 5 2 9 11 7 21 -3 12 -8 14 -19 7z"/>
<path d="M10560 2946 c0 -16 18 -31 27 -22 3 3 -2 12 -11 21 -14 14 -16 14
-16 1z"/>
<path d="M6838 2893 c-10 -2 -15 -10 -11 -19 3 -8 -1 -14 -11 -14 -9 0 -16 -8
-16 -18 0 -10 -6 -24 -12 -31 -22 -23 80 -3 108 22 29 25 30 35 7 53 -18 14
-34 15 -65 7z"/>
<path d="M6510 2850 c-11 -7 -6 -10 20 -10 26 0 31 3 20 10 -8 5 -17 10 -20
10 -3 0 -12 -5 -20 -10z"/>
<path d="M10912 2740 c0 -14 2 -19 5 -12 2 6 2 18 0 25 -3 6 -5 1 -5 -13z"/>
<path d="M8835 2700 c3 -5 8 -10 11 -10 2 0 4 5 4 10 0 6 -5 10 -11 10 -5 0
-7 -4 -4 -10z"/>
<path d="M8891 2645 c12 -22 28 -47 36 -55 11 -12 13 -12 13 0 0 8 -16 33 -36
55 l-36 40 23 -40z"/>
<path d="M10931 2665 c-1 -11 -4 -40 -7 -63 -3 -26 -1 -42 4 -38 5 3 8 -13 6
-38 -3 -29 0 -45 9 -49 10 -4 11 13 5 82 -4 47 -10 95 -12 106 l-3 20 -2 -20z"/>
<path d="M10890 2649 c0 -11 5 -17 10 -14 6 3 10 13 10 21 0 8 -4 14 -10 14
-5 0 -10 -9 -10 -21z"/>
<path d="M8980 2535 c0 -8 7 -15 15 -15 8 0 15 4 15 9 0 5 -7 11 -15 15 -9 3
-15 0 -15 -9z"/>
<path d="M8205 2430 c3 -5 8 -10 11 -10 2 0 4 5 4 10 0 6 -5 10 -11 10 -5 0
-7 -4 -4 -10z"/>
<path d="M10970 2392 c0 -17 4 -34 10 -37 6 -4 7 6 3 27 -8 44 -13 48 -13 10z"/>
<path d="M5559 2363 c-13 -15 -12 -15 9 -4 23 12 28 21 13 21 -5 0 -15 -7 -22
-17z"/>
<path d="M5515 2330 c-3 -5 -1 -10 4 -10 6 0 11 5 11 10 0 6 -2 10 -4 10 -3 0
-8 -4 -11 -10z"/>
<path d="M10989 2304 c4 -16 7 -43 6 -61 -1 -18 2 -30 7 -26 5 3 8 -3 7 -13
-2 -11 3 -30 10 -43 7 -13 11 -36 9 -53 -3 -16 -1 -31 4 -34 4 -3 8 8 8 25 0
38 -40 213 -51 225 -5 6 -5 -3 0 -20z"/>
<path d="M8100 2096 c0 -8 4 -16 10 -18 14 -5 -10 -78 -27 -78 -7 0 -13 -4
-13 -9 0 -5 -16 -26 -35 -47 -40 -42 -40 -41 -21 -60 19 -18 34 -18 53 2 13
13 14 20 5 35 -11 16 -9 18 10 16 15 -1 23 4 26 18 2 11 10 27 17 35 7 8 15
32 19 53 6 30 4 37 -9 37 -8 0 -15 7 -15 15 0 8 -4 15 -10 15 -5 0 -10 -6 -10
-14z"/>
<path d="M11072 1960 c0 -14 2 -19 5 -12 2 6 2 18 0 25 -3 6 -5 1 -5 -13z"/>
<path d="M11077 1914 c-3 -5 3 -21 14 -34 13 -18 19 -20 19 -9 0 21 -25 54
-33 43z"/>
<path d="M8010 1825 c0 -8 2 -15 4 -15 2 0 6 7 10 15 3 8 1 15 -4 15 -6 0 -10
-7 -10 -15z"/>
<path d="M8380 1800 c0 -27 -4 -40 -13 -40 -8 0 -20 -11 -27 -25 -11 -20 -11
-27 0 -40 7 -8 19 -15 26 -15 19 0 18 -29 -1 -36 -8 -4 -15 -13 -15 -20 0 -8
-7 -17 -15 -21 -14 -5 -14 -8 1 -24 19 -21 41 -15 23 7 -9 11 -8 14 4 14 19 0
36 29 39 64 2 23 7 26 41 26 34 0 37 -2 23 -15 -8 -8 -19 -15 -24 -15 -17 0
-22 -30 -7 -36 10 -4 15 -21 15 -55 0 -49 0 -49 33 -48 17 1 24 3 15 6 -12 3
-18 14 -18 34 0 24 4 29 25 29 28 0 32 12 10 30 -8 7 -15 23 -15 36 0 25 14
32 25 13 4 -6 13 -8 21 -5 8 3 14 1 14 -3 0 -5 20 -11 45 -13 36 -2 44 0 40
11 -3 8 0 18 7 23 10 6 10 8 1 8 -18 0 -16 21 4 35 15 11 15 13 -5 24 -17 9
-22 9 -22 -1 0 -7 -9 -24 -19 -37 -18 -24 -19 -24 -29 -4 -10 19 -15 19 -104
7 -94 -12 -115 -8 -105 20 8 20 27 21 27 1 0 -11 11 -15 40 -15 33 0 40 3 40
20 0 12 7 20 16 20 13 0 14 3 4 15 -6 8 -9 19 -5 25 3 5 -1 17 -9 26 -15 14
-16 12 -16 -25 0 -34 -3 -41 -20 -41 -11 0 -20 5 -20 10 0 6 5 10 10 10 15 0
12 29 -4 46 -22 21 -24 18 -29 -28 l-4 -43 -1 43 c-2 53 -22 56 -22 2z m100
-156 c0 -8 -5 -12 -10 -9 -6 4 -8 11 -5 16 9 14 15 11 15 -7z"/>
<path d="M8516 1813 c7 -32 30 -60 40 -50 8 8 -27 77 -38 77 -5 0 -5 -12 -2
-27z"/>
<path d="M8577 1783 c-14 -13 -6 -23 18 -23 18 0 23 4 19 15 -6 16 -26 20 -37
8z"/>
<path d="M6160 1644 c0 -10 -2 -44 -5 -74 -3 -41 -2 -47 4 -25 l9 30 1 -34 c0
-19 3 -32 6 -30 5 6 7 97 2 121 -5 26 -17 34 -17 12z"/>
<path d="M8695 1650 c3 -5 10 -10 16 -10 5 0 9 5 9 10 0 6 -7 10 -16 10 -8 0
-12 -4 -9 -10z"/>
<path d="M8545 1627 c-4 -10 -5 -21 -1 -24 10 -10 18 4 13 24 -4 17 -4 17 -12
0z"/>
<path d="M8398 1604 c-4 -3 -4 -13 -1 -21 3 -8 -7 -27 -23 -44 -29 -31 -24
-41 8 -12 11 9 18 11 18 5 0 -7 7 -12 16 -12 12 0 14 9 12 42 -3 39 -16 57
-30 42z"/>
<path d="M8698 1603 c7 -3 16 -2 19 1 4 3 -2 6 -13 5 -11 0 -14 -3 -6 -6z"/>
<path d="M8580 1584 c0 -9 7 -14 17 -12 25 5 28 28 4 28 -12 0 -21 -6 -21 -16z"/>
<path d="M8555 1560 c2 -14 5 -33 5 -42 0 -12 5 -15 16 -11 9 3 11 9 6 12 -5
3 -14 20 -21 36 -9 23 -10 25 -6 5z"/>
<path d="M8285 1490 c-18 -8 -17 -9 8 -9 15 -1 27 4 27 9 0 12 -8 12 -35 0z"/>
<path d="M8384 1489 c-3 -6 -1 -16 5 -22 8 -8 11 -5 11 11 0 24 -5 28 -16 11z"/>
<path d="M8237 1459 c7 -7 15 -10 18 -7 3 3 -2 9 -12 12 -14 6 -15 5 -6 -5z"/>
<path d="M8333 1443 c-15 -3 -20 -9 -16 -20 5 -13 0 -14 -35 -8 -53 9 -56 -10
-5 -22 25 -6 39 -15 41 -27 3 -15 0 -17 -14 -11 -11 4 -29 10 -41 12 -21 5
-23 2 -23 -36 0 -30 4 -41 15 -41 11 0 14 7 9 25 -8 31 15 34 34 5 11 -18 10
-21 -11 -29 -28 -11 -43 -72 -25 -105 11 -20 11 -20 19 -1 4 11 8 30 8 41 1
12 7 22 14 21 6 0 32 1 56 1 38 2 43 4 38 22 -4 16 0 20 19 20 13 0 24 5 24
10 0 6 7 10 16 10 14 0 14 -2 3 -16 -11 -13 -11 -15 2 -14 29 4 49 0 49 -11 0
-7 -12 -9 -35 -5 -38 8 -77 -7 -69 -27 3 -9 -8 -11 -41 -9 -28 3 -45 0 -45 -7
0 -6 16 -11 36 -11 19 0 44 -5 55 -11 20 -10 20 -11 3 -30 -13 -15 -14 -19 -3
-20 8 -1 23 -2 34 -3 11 0 19 -7 18 -13 -2 -7 2 -13 7 -13 6 0 10 11 10 25 0
18 -5 25 -20 25 -17 0 -19 4 -14 28 8 35 34 57 48 41 8 -8 7 -13 -1 -16 -15
-6 -17 -43 -3 -43 6 0 10 9 10 20 0 11 5 20 11 20 6 0 8 7 5 16 -4 10 1 22 11
29 15 11 13 13 -15 20 -35 7 -42 28 -14 45 14 9 12 10 -13 8 -16 -2 -30 2 -30
7 0 6 6 9 13 9 16 -2 15 11 -2 25 -12 10 -17 8 -25 -7 -16 -30 -37 -33 -39 -6
-1 18 3 24 18 24 11 0 20 6 20 14 0 19 -23 33 -28 18 -2 -7 -10 -19 -18 -26
-8 -8 -14 -24 -14 -36 0 -16 -4 -20 -16 -16 -9 3 -18 6 -20 6 -2 0 -4 7 -4 15
0 8 -4 15 -10 15 -17 0 -11 25 10 43 25 21 30 21 30 2 0 -8 7 -15 15 -15 8 0
15 7 15 15 0 8 -4 15 -9 15 -5 0 -15 2 -23 4 -7 2 -23 1 -35 -1z m12 -123 c3
-5 -1 -10 -9 -10 -9 0 -16 5 -16 10 0 6 4 10 9 10 6 0 13 -4 16 -10z m55 -6
c0 -8 -4 -12 -10 -9 -5 3 -10 10 -10 16 0 5 5 9 10 9 6 0 10 -7 10 -16z m-45
-24 c3 -5 -1 -10 -10 -10 -9 0 -13 5 -10 10 3 6 8 10 10 10 2 0 7 -4 10 -10z"/>
<path d="M8125 1360 c-3 -5 -1 -10 4 -10 6 0 11 5 11 10 0 6 -2 10 -4 10 -3 0
-8 -4 -11 -10z"/>
<path d="M8134 1312 c-17 -11 -22 -35 -13 -54 5 -9 11 -48 14 -88 3 -40 10
-81 16 -91 6 -13 6 -19 -1 -19 -5 0 -10 -5 -10 -11 0 -13 55 -7 56 6 2 18 -8
35 -21 35 -7 0 -15 7 -19 15 -3 8 -1 15 5 15 7 0 8 12 3 33 -4 17 -6 44 -6 60
0 15 -3 27 -8 27 -4 0 -6 9 -3 20 3 11 0 20 -6 20 -6 0 -11 5 -11 11 0 5 4 8
9 4 5 -3 12 -1 15 4 8 13 -7 22 -20 13z"/>
<path d="M8183 1240 c-8 -33 -8 -40 4 -40 7 0 18 11 23 24 5 13 14 27 19 31
19 11 12 25 -12 25 -18 0 -25 -8 -34 -40z"/>
<path d="M8181 1173 c-1 -12 4 -25 9 -28 6 -4 8 -11 5 -16 -4 -5 -2 -9 4 -9 5
0 13 5 16 10 3 6 2 10 -4 10 -5 0 -14 12 -19 28 -9 24 -11 24 -11 5z"/>
<path d="M8314 1155 c-8 -32 -3 -37 41 -41 45 -3 51 8 17 33 -48 35 -51 35
-58 8z"/>
<path d="M4617 1084 c-3 -3 -6 -98 -7 -210 l-1 -204 31 0 30 0 0 185 c0 178 1
185 20 185 15 0 20 7 20 25 0 23 -4 25 -43 25 -24 0 -46 -3 -50 -6z"/>
<path d="M5100 1020 c0 -68 1 -70 25 -70 23 0 25 4 25 45 0 38 3 45 20 45 15
0 20 7 20 25 0 23 -4 25 -45 25 l-45 0 0 -70z"/>
<path d="M8156 1013 c-2 -10 -3 -31 0 -48 3 -16 6 -45 9 -64 2 -19 8 -38 13
-43 12 -12 45 20 35 35 -5 8 -8 8 -11 -1 -2 -7 -10 -12 -18 -12 -10 0 -12 5
-7 13 4 6 6 22 4 35 -1 12 2 22 8 22 5 0 11 -10 14 -22 3 -22 4 -22 12 -4 6
14 3 24 -15 38 -18 15 -20 21 -10 33 6 8 9 19 5 25 -10 16 -33 12 -39 -7z"/>
<path d="M4197 755 c-36 -213 -36 -215 -53 -215 -19 0 -18 -25 2 -44 22 -23
51 -20 66 7 12 21 25 323 16 392 -1 17 -16 -46 -31 -140z"/>
<path d="M4031 728 l-1 -187 -52 -3 c-49 -3 -53 -5 -53 -28 0 -24 2 -25 75
-25 l75 0 3 80 c1 51 -7 129 -22 215 l-24 135 -1 -187z"/>
<path d="M5100 740 c0 -68 1 -70 25 -70 23 0 25 4 25 45 0 38 3 45 20 45 15 0
20 7 20 25 0 23 -4 25 -45 25 l-45 0 0 -70z"/>
<path d="M5340 728 l0 -84 -53 -52 -53 -52 -122 0 -123 0 3 -27 3 -28 138 -3
138 -3 59 53 60 52 0 96 c-1 89 -2 96 -25 113 l-25 18 0 -83z"/>
<path d="M10940 750 c0 -5 7 -10 16 -10 8 0 12 5 9 10 -3 6 -10 10 -16 10 -5
0 -9 -4 -9 -10z"/>
<path d="M5886 643 c-4 -10 -4 -52 0 -94 5 -57 2 -95 -11 -151 l-18 -74 26
-40 c30 -49 109 -96 129 -76 9 9 9 15 0 24 -14 14 -16 68 -3 68 5 0 12 -12 16
-27 3 -16 18 -54 32 -86 28 -63 47 -74 109 -63 28 6 38 14 50 41 13 33 9 90
-11 139 -6 14 -4 17 11 14 10 -2 19 -10 20 -18 2 -31 5 -32 24 -7 18 23 20 40
20 196 l0 171 -194 0 c-174 0 -195 -2 -200 -17z m304 -295 c0 -10 -4 -18 -10
-18 -5 0 -14 8 -19 18 -7 14 -6 18 10 18 12 0 19 -7 19 -18z m72 -11 c-5 -19
-11 -24 -21 -18 -11 7 -10 12 5 28 24 24 25 23 16 -10z m-141 -42 c-14 -24
-16 -35 -8 -35 7 0 17 4 23 9 11 12 41 -8 44 -29 9 -61 -9 -86 -54 -74 -27 6
-46 53 -46 111 0 41 8 51 43 52 18 1 18 -1 -2 -34z m-138 18 c-7 -2 -19 -2
-25 0 -7 3 -2 5 12 5 14 0 19 -2 13 -5z"/>
<path d="M6775 438 c-27 -5 -54 -13 -60 -17 -5 -5 -36 -12 -67 -15 -32 -4 -60
-12 -63 -17 -4 -5 -17 -9 -30 -9 -27 0 -42 -16 -23 -23 7 -3 -1 -3 -18 0 -18
3 -35 0 -38 -6 -4 -6 0 -11 11 -11 15 0 16 -2 3 -11 -12 -8 -10 -9 10 -6 58
12 246 58 260 64 8 4 25 8 38 9 13 2 29 7 35 13 7 5 23 11 37 14 25 4 25 4 -2
6 -16 0 -28 6 -28 11 0 6 -3 9 -7 9 -5 -1 -30 -6 -58 -11z m48 -15 c-7 -2 -19
-2 -25 0 -7 3 -2 5 12 5 14 0 19 -2 13 -5z"/>
<path d="M5841 401 c-1 -24 2 -32 9 -25 7 7 7 19 1 35 -9 23 -10 22 -10 -10z"/>
<path d="M8084 375 c17 -13 17 -15 4 -15 -9 0 -20 5 -23 11 -4 6 -14 7 -24 4
-9 -4 -27 -9 -41 -11 -14 -2 -36 -7 -50 -10 -14 -3 -50 -10 -80 -14 -77 -11
-140 -29 -140 -40 0 -5 7 -7 15 -4 20 8 19 -6 -2 -22 -17 -13 -17 -13 1 -14
13 0 17 -5 13 -20 -3 -11 -1 -18 4 -15 5 3 26 3 46 -1 35 -7 36 -8 13 -14
l-25 -7 28 -8 c15 -4 27 -11 27 -15 0 -13 93 -21 128 -11 17 5 32 6 32 1 0 -5
8 -16 17 -25 15 -16 18 -16 28 -2 10 14 19 14 74 3 35 -7 67 -19 71 -26 5 -8
18 -14 31 -15 19 -2 20 0 6 10 -11 8 -13 15 -6 22 6 6 5 20 -4 41 -7 18 -16
29 -20 25 -4 -3 -7 4 -7 16 0 12 -4 19 -10 16 -5 -3 -7 0 -4 9 6 16 -12 56
-26 56 -5 0 -21 11 -35 24 l-26 25 22 11 c17 10 19 14 8 21 -8 5 -25 9 -39 9
-24 -1 -24 -1 -6 -15z m-34 -129 c0 -2 -7 -7 -16 -10 -8 -3 -12 -2 -9 4 6 10
25 14 25 6z m30 -52 c0 -8 -4 -12 -10 -9 -5 3 -10 10 -10 16 0 5 5 9 10 9 6 0
10 -7 10 -16z m-30 -24 c0 -5 -4 -10 -10 -10 -5 0 -10 5 -10 10 0 6 5 10 10
10 6 0 10 -4 10 -10z"/>
<path d="M5780 335 c0 -18 -20 -20 -20 -2 0 6 -5 4 -11 -6 -8 -14 -18 -16 -45
-11 -33 6 -34 5 -34 -25 0 -24 -4 -31 -20 -31 -11 0 -25 -9 -32 -19 -7 -11
-18 -17 -27 -13 -10 4 -13 1 -8 -11 4 -11 -1 -18 -14 -22 -10 -4 -20 -12 -20
-18 -1 -7 -2 -17 -3 -23 -2 -16 -30 -41 -52 -46 -14 -3 -18 -11 -16 -31 2 -22
-1 -27 -20 -28 -22 -1 -22 -1 2 -8 17 -5 21 -9 12 -15 -6 -4 -16 -4 -22 -1 -5
3 -10 2 -10 -3 0 -16 73 -22 257 -21 l178 0 44 89 c54 111 47 134 -21 59 -27
-30 -51 -64 -54 -76 -4 -13 -10 -23 -15 -23 -5 0 -9 -7 -9 -15 0 -8 -4 -15
-10 -15 -5 0 -10 4 -10 9 0 16 22 71 29 71 12 0 41 57 33 65 -4 5 -2 5 4 2 18
-11 23 16 11 56 -10 32 -16 37 -41 37 -28 0 -29 1 -10 15 19 14 19 14 -3 15
-25 0 -39 17 -35 43 2 9 1 17 -2 17 -3 0 -6 -7 -6 -15z m-42 -57 c-6 -18 -28
-21 -28 -4 0 9 7 16 16 16 9 0 14 -5 12 -12z"/>
<path d="M8140 340 c0 -5 5 -10 10 -10 6 0 10 5 10 10 0 6 -4 10 -10 10 -5 0
-10 -4 -10 -10z"/>
<path d="M6321 294 c0 -11 3 -14 6 -6 3 7 2 16 -1 19 -3 4 -6 -2 -5 -13z"/>
<path d="M6265 269 c-4 -6 -5 -13 -2 -16 7 -7 27 6 27 18 0 12 -17 12 -25 -2z"/>
</g>
</svg>
